<?xml version="1.0" encoding="UTF-8" standalone="no"?>
<!-- Created with Inkscape (http://www.inkscape.org/) -->

<svg
   xmlns:dc="http://purl.org/dc/elements/1.1/"
   xmlns:cc="http://creativecommons.org/ns#"
   xmlns:rdf="http://www.w3.org/1999/02/22-rdf-syntax-ns#"
   xmlns:svg="http://www.w3.org/2000/svg"
   xmlns="http://www.w3.org/2000/svg"
   xmlns:sodipodi="http://sodipodi.sourceforge.net/DTD/sodipodi-0.dtd"
   xmlns:inkscape="http://www.inkscape.org/namespaces/inkscape"
   version="1.1"
   width="72"
   height="36"
   id="svg3036"
   inkscape:version="0.48.5 r10040"
   sodipodi:docname="close.svg">
  <sodipodi:namedview
     pagecolor="#ffffff"
     bordercolor="#666666"
     borderopacity="1"
     objecttolerance="10"
     gridtolerance="10"
     guidetolerance="10"
     inkscape:pageopacity="0"
     inkscape:pageshadow="2"
     inkscape:window-width="1280"
     inkscape:window-height="1002"
     id="namedview14"
     showgrid="true"
     inkscape:snap-bbox="true"
     inkscape:bbox-nodes="true"
     inkscape:snap-bbox-edge-midpoints="true"
     inkscape:bbox-paths="true"
     inkscape:zoom="7.0286414"
     inkscape:cx="24.758054"
     inkscape:cy="17.436706"
     inkscape:window-x="1365"
     inkscape:window-y="0"
     inkscape:window-maximized="1"
     inkscape:current-layer="svg3036">
    <inkscape:grid
       type="xygrid"
       id="grid2991"
       empspacing="5"
       visible="true"
       enabled="true"
       snapvisiblegridlinesonly="true"
       spacingx="18px"
       spacingy="18px" />
  </sodipodi:namedview>
  <defs
     id="defs3038" />
  <metadata
     id="metadata3041">
    <rdf:RDF>
      <cc:Work
         rdf:about="">
        <dc:format>image/svg+xml</dc:format>
        <dc:type
           rdf:resource="http://purl.org/dc/dcmitype/StillImage" />
        <dc:title></dc:title>
      </cc:Work>
    </rdf:RDF>
  </metadata>
  <g
     id="active-center"
     transform="matrix(0.70710678,-0.70710678,0.70710678,0.70710678,-735.13244,-722.40453)">
    <g
       id="g3055">
      <path
         inkscape:connector-curvature="0"
         d="m 20,9.3621826 a 8,9 0 1 1 -16,0 8,9 0 1 1 16,0 z"
         transform="matrix(1.125,0,0,1.0000001,-4.5,1034)"
         id="path2991"
         style="fill:#5288d1;fill-opacity:0;stroke:none" />
      <g
         transform="matrix(0,-1,1,0,0.47643494,1052.5241)"
         id="g2993"
         style="fill:#5a5a5a;fill-opacity:1">
        <path
           style="fill:#6f6f6f;stroke:none;fill-opacity:1;opacity:0.584"
           d="M 9 5 L 7.59375 6.40625 L 3.34375 10.65625 L 4.75 12.0625 L 9 7.8125 L 13.25 12.0625 L 14.65625 10.65625 L 10.40625 6.40625 L 9 5 z "
           transform="matrix(-0.70710678,0.70710678,-0.70710678,-0.70710678,21.889823,8.5235565)"
           id="rect2987" />
      </g>
    </g>
  </g>
  <g
     transform="matrix(0.70710678,-0.70710678,0.70710678,0.70710678,-735.13244,-704.40453)"
     id="inactive-center">
    <g
       id="g3063">
      <path
         style="fill:#5288d1;fill-opacity:0;stroke:none"
         id="path3065"
         transform="matrix(1.125,0,0,1.0000001,-4.5,1034)"
         d="m 20,9.3621826 a 8,9 0 1 1 -16,0 8,9 0 1 1 16,0 z"
         inkscape:connector-curvature="0" />
      <g
         style="fill:#5a5a5a;fill-opacity:1"
         id="g3067"
         transform="matrix(0,-1,1,0,0.47643494,1052.5241)">
        <path
           style="fill:#b3b3b3;stroke:none;fill-opacity:1;opacity:0.584"
           d="M 9 23 L 7.59375 24.40625 L 3.34375 28.65625 L 4.75 30.0625 L 9 25.8125 L 13.25 30.0625 L 14.65625 28.65625 L 10.40625 24.40625 L 9 23 z "
           transform="matrix(-0.70710678,0.70710678,-0.70710678,-0.70710678,34.617745,21.251479)"
           id="path3069" />
      </g>
    </g>
  </g>
  <g
     id="hover-center"
     transform="matrix(0.70710678,-0.70710678,0.70710678,0.70710678,-717.13244,-722.40453)">
    <g
       id="g3075">
      <path
         inkscape:connector-curvature="0"
         d="m 20,9.3621826 a 8,9 0 1 1 -16,0 8,9 0 1 1 16,0 z"
         transform="matrix(1.125,0,0,1.0000001,-4.5,1034)"
         id="path3077"
         style="fill:#5288d1;fill-opacity:0;stroke:none" />
      <g
         transform="matrix(0,-1,1,0,0.47643494,1052.5241)"
         id="g3079"
         style="fill:#5a5a5a;fill-opacity:1">
        <path
           style="fill:#6f6f6f;stroke:none;fill-opacity:1;opacity:0.584"
           d="M 27 5 L 25.59375 6.40625 L 21.34375 10.65625 L 22.75 12.0625 L 27 7.8125 L 31.25 12.0625 L 32.65625 10.65625 L 28.40625 6.40625 L 27 5 z "
           transform="matrix(-0.70710678,0.70710678,-0.70710678,-0.70710678,34.617745,-4.2043655)"
           id="path3081" />
      </g>
    </g>
  </g>
  <g
     transform="matrix(0.70710678,-0.70710678,0.70710678,0.70710678,-717.13244,-704.40453)"
     id="hover-inactive-center">
    <g
       id="g3087">
      <path
         style="fill:#5288d1;fill-opacity:0;stroke:none"
         id="path3089"
         transform="matrix(1.125,0,0,1.0000001,-4.5,1034)"
         d="m 20,9.3621826 a 8,9 0 1 1 -16,0 8,9 0 1 1 16,0 z"
         inkscape:connector-curvature="0" />
      <g
         style="fill:#5a5a5a;fill-opacity:1"
         id="g3091"
         transform="matrix(0,-1,1,0,0.47643494,1052.5241)">
        <path
           style="fill:#b3b3b3;stroke:none;fill-opacity:1;opacity:0.584"
           d="M 27 23 L 25.59375 24.40625 L 21.34375 28.65625 L 22.75 30.0625 L 27 25.8125 L 31.25 30.0625 L 32.65625 28.65625 L 28.40625 24.40625 L 27 23 z "
           transform="matrix(-0.70710678,0.70710678,-0.70710678,-0.70710678,47.345667,8.5235565)"
           id="path3093" />
      </g>
    </g>
  </g>
  <g
     transform="matrix(0.70710678,-0.70710678,0.70710678,0.70710678,-699.13244,-722.40453)"
     id="pressed-center">
    <g
       id="g3099">
      <path
         style="fill:#5288d1;fill-opacity:0;stroke:none"
         id="path3101"
         transform="matrix(1.125,0,0,1.0000001,-4.5,1034)"
         d="m 20,9.3621826 a 8,9 0 1 1 -16,0 8,9 0 1 1 16,0 z"
         inkscape:connector-curvature="0" />
      <g
         style="fill:#5a5a5a;fill-opacity:1"
         id="g3103"
         transform="matrix(0,-1,1,0,0.47643494,1052.5241)">
        <path
           style="fill:#407dec;stroke:none;fill-opacity:1"
           d="m 10,3.3621826 2,0 0,8.0000004 -2,0 z"
           id="path3105"
           inkscape:connector-curvature="0"
           sodipodi:nodetypes="ccccc" />
        <path
           transform="matrix(0,1,-1,0,0,0)"
           style="fill:#407dec;stroke:none;fill-opacity:1"
           d="m 9.3621827,-12 2.0000003,0 0,8 -2.0000004,0 z"
           id="path3107"
           inkscape:connector-curvature="0"
           sodipodi:nodetypes="ccccc" />
      </g>
    </g>
  </g>
  <g
     id="pressed-inactive-center"
     transform="matrix(0.70710678,-0.70710678,0.70710678,0.70710678,-699.12842,-704.40252)">
    <g
       id="g3111">
      <path
         inkscape:connector-curvature="0"
         d="m 20,9.3621826 a 8,9 0 1 1 -16,0 8,9 0 1 1 16,0 z"
         transform="matrix(1.125,0,0,1.0000001,-4.5,1034)"
         id="path3113"
         style="fill:#5288d1;fill-opacity:0;stroke:none" />
      <g
         transform="matrix(0,-1,1,0,0.47643494,1052.5241)"
         id="g3115"
         style="fill:#5a5a5a;fill-opacity:1">
        <path
           sodipodi:nodetypes="ccccc"
           inkscape:connector-curvature="0"
           id="path3117"
           d="m 10,3.3621826 2,0 0,8.0000004 -2,0 z"
           style="fill:#407dec;stroke:none;fill-opacity:1" />
        <path
           sodipodi:nodetypes="ccccc"
           inkscape:connector-curvature="0"
           id="path3119"
           d="m 9.3621827,-12 2.0000003,0 0,8 -2.0000004,0 z"
           style="fill:#407dec;stroke:none;fill-opacity:1"
           transform="matrix(0,1,-1,0,0,0)" />
      </g>
    </g>
  </g>
  <g
     transform="matrix(0.70710678,-0.70710678,0.70710678,0.70710678,-681.13445,-704.4025)"
     id="deactivated-inactive-center">
    <g
       id="g3123">
      <path
         style="fill:#5288d1;fill-opacity:0;stroke:none"
         id="path3125"
         transform="matrix(1.125,0,0,1.0000001,-4.5,1034)"
         d="m 20,9.3621826 a 8,9 0 1 1 -16,0 8,9 0 1 1 16,0 z"
         inkscape:connector-curvature="0" />
      <g
         style="fill:#5a5a5a;fill-opacity:1"
         id="g3127"
         transform="matrix(0,-1,1,0,0.47643494,1052.5241)">
        <path
           style="fill:#b3b3b3;stroke:none;fill-opacity:1;opacity:0.584"
           d="M 63 23 L 61.59375 24.40625 L 57.34375 28.65625 L 58.75 30.0625 L 63 25.8125 L 67.25 30.0625 L 68.65625 28.65625 L 64.40625 24.40625 L 63 23 z "
           transform="matrix(-0.70710678,0.70710678,-0.70710678,-0.70710678,72.801525,-16.929431)"
           id="path3129" />
      </g>
    </g>
  </g>
  <g
     id="deactivated-center"
     transform="matrix(0.70710678,-0.70710678,0.70710678,0.70710678,-681.13244,-722.40654)">
    <g
       id="g3135">
      <path
         inkscape:connector-curvature="0"
         d="m 20,9.3621826 a 8,9 0 1 1 -16,0 8,9 0 1 1 16,0 z"
         transform="matrix(1.125,0,0,1.0000001,-4.5,1034)"
         id="path3137"
         style="fill:#5288d1;fill-opacity:0;stroke:none" />
      <g
         transform="matrix(0,-1,1,0,0.47643494,1052.5241)"
         id="g3139"
         style="fill:#5a5a5a;fill-opacity:1">
        <path
           style="fill:#6f6f6f;stroke:none;fill-opacity:1;opacity:0.584"
           d="M 63 4.96875 L 61.59375 6.40625 L 57.34375 10.65625 L 58.75 12.0625 L 63 7.8125 L 67.25 12.0625 L 68.65625 10.65625 L 64.40625 6.40625 L 63 4.96875 z "
           transform="matrix(-0.70710678,0.70710678,-0.70710678,-0.70710678,60.072168,-29.661631)"
           id="path3141" />
      </g>
    </g>
  </g>
</svg>
