/* XPM */
static char *top_left_active[] = {
/* columns rows colors chars-per-pixel */
"2 33 2 1 ",
"  c magenta s inactive_text_color",
". c None",
/* pixels */
"..",
"..",
"  ",
"  ",
"  ",
"  ",
"  ",
"  ",
"  ",
"  ",
"  ",
"  ",
"  ",
"  ",
"  ",
"  ",
"  ",
"  ",
"  ",
"  ",
"  ",
"  ",
"  ",
"  ",
"  ",
"  ",
"  ",
"  ",
"  ",
"  ",
"  ",
"  ",
"  "
};
