<?xml version="1.0" encoding="UTF-8" standalone="no"?>
<svg
   xmlns:dc="http://purl.org/dc/elements/1.1/"
   xmlns:cc="http://creativecommons.org/ns#"
   xmlns:rdf="http://www.w3.org/1999/02/22-rdf-syntax-ns#"
   xmlns:svg="http://www.w3.org/2000/svg"
   xmlns="http://www.w3.org/2000/svg"
   width="22"
   height="22"
   viewBox="0 0 21.999999 21.999999"
   id="svg2"
   version="1.1">
  <defs
     id="defs4" />
  <metadata
     id="metadata7">
    <rdf:RDF>
      <cc:Work
         rdf:about="">
        <dc:format>image/svg+xml</dc:format>
        <dc:type
           rdf:resource="http://purl.org/dc/dcmitype/StillImage" />
        <dc:title></dc:title>
      </cc:Work>
    </rdf:RDF>
  </metadata>
  <g
     style="fill:#ffffff;opacity:0.5;fill-opacity:1"
     id="layer1"
     transform="translate(0,-1030.3622)">
    <path
       style="opacity:0.6;fill:#ffffff;fill-opacity:1;stroke:none;stroke-width:1;stroke-linecap:round;stroke-linejoin:round;stroke-miterlimit:4;stroke-dasharray:none;stroke-opacity:1"
       d="M 11 0 A 11.000001 11.000001 0 0 0 0 11 A 11.000001 11.000001 0 0 0 11 22 A 11.000001 11.000001 0 0 0 22 11 A 11.000001 11.000001 0 0 0 11 0 z M 7 5 L 11 9 L 15 5 L 17 7 L 13 11 L 17 15 L 15 17 L 11 13 L 7 17 L 5 15 L 9 11 L 5 7 L 7 5 z "
       transform="translate(0,1030.3622)"
       id="path3338" />
  </g>
</svg>
