<?xml version="1.0" encoding="UTF-8" standalone="no"?>
<!-- Created with Inkscape (http://www.inkscape.org/) -->

<svg
   xmlns:dc="http://purl.org/dc/elements/1.1/"
   xmlns:cc="http://creativecommons.org/ns#"
   xmlns:rdf="http://www.w3.org/1999/02/22-rdf-syntax-ns#"
   xmlns:svg="http://www.w3.org/2000/svg"
   xmlns="http://www.w3.org/2000/svg"
   version="1.1"
   width="100%"
   height="100%"
   viewBox="0 0 100 100"
   id="Layer_1"
   xml:space="preserve"><defs
     id="defs13" /><g
     id="g3"
     style="opacity:0.5;fill:#ffffff"><g
       id="g5"
       style="fill:#ffffff"><path
         d="m 91.645,8.355 c -4.474,-4.474 -11.727,-4.474 -16.2,0 l -13.5,13.501 -3.727,-3.727 c -1.959,-1.959 -5.134,-1.959 -7.093,0 -1.959,1.959 -1.959,5.134 0,7.093 l 3.727,3.727 -41.51,41.508 c -2.039,2.039 -3.149,4.656 -3.329,7.324 -0.073,1.087 -0.347,3.105 -0.675,5.292 -0.053,0.359 -0.212,0.706 -0.487,0.983 l -3.105,3.106 c -0.994,0.994 -0.994,2.606 0,3.6 l 3.493,3.493 c 0.994,0.994 2.606,0.994 3.6,0 l 3.106,-3.105 c 0.277,-0.275 0.622,-0.433 0.981,-0.486 2.187,-0.329 4.205,-0.602 5.293,-0.675 2.668,-0.18 5.285,-1.29 7.325,-3.33 l 41.508,-41.508 3.727,3.727 c 1.959,1.959 5.134,1.959 7.093,0 1.959,-1.959 1.959,-5.134 0,-7.093 l -12.365,-12.366 9.697,7.577 12.44,-12.441 c 4.475,-4.473 4.474,-11.726 10e-4,-16.2 z m -26.594,34.394 -20.53,20.53 c -0.994,0.994 -2.606,0.994 -3.6,0 l -3.27,-3.27 c -0.994,-0.993 -2.605,-0.993 -3.599,10e-4 l -0.616,0.616 -0.002,-0.002 -14.728,14.727 c -0.337,0.337 -0.819,0.401 -1.076,0.143 -0.257,-0.258 -0.194,-0.74 0.143,-1.076 l 23.841,-23.841 0.004,0.004 15.633,-15.633 c 0.994,-0.994 2.606,-0.994 3.6,0 l 4.2,4.201 c 0.994,0.994 0.994,2.606 0,3.6 z"
         id="path7"
         style="fill:#ffffff" /></g></g><metadata
     id="metadata9"><rdf:RDF><cc:Work><dc:format>image/svg+xml</dc:format><dc:type
           rdf:resource="http://purl.org/dc/dcmitype/StillImage" /><cc:license
           rdf:resource="http://creativecommons.org/licenses/publicdomain/" /><dc:publisher><cc:Agent
             rdf:about="http://openclipart.org/"><dc:title>Openclipart</dc:title></cc:Agent></dc:publisher><dc:title></dc:title></cc:Work><cc:License
         rdf:about="http://creativecommons.org/licenses/publicdomain/"><cc:permits
           rdf:resource="http://creativecommons.org/ns#Reproduction" /><cc:permits
           rdf:resource="http://creativecommons.org/ns#Distribution" /><cc:permits
           rdf:resource="http://creativecommons.org/ns#DerivativeWorks" /></cc:License></rdf:RDF></metadata></svg>