<?xml version="1.0" encoding="UTF-8" standalone="no"?>
<svg
   xmlns:dc="http://purl.org/dc/elements/1.1/"
   xmlns:cc="http://creativecommons.org/ns#"
   xmlns:rdf="http://www.w3.org/1999/02/22-rdf-syntax-ns#"
   xmlns:svg="http://www.w3.org/2000/svg"
   xmlns="http://www.w3.org/2000/svg"
   version="1.1"
   id="svg2"
   viewBox="0 0 16 16">
  <metadata
     id="metadata12">
    <rdf:RDF>
      <cc:Work
         rdf:about="">
        <dc:format>image/svg+xml</dc:format>
        <dc:type
           rdf:resource="http://purl.org/dc/dcmitype/StillImage" />
        <dc:title></dc:title>
      </cc:Work>
    </rdf:RDF>
  </metadata>
  <defs
     id="defs10" />
  <path
     style="opacity:0.35"
     id="path4"
     opacity="0.2"
     d="M 7.5,3 C 4.5,3 2,5.5 2,8.5 2,11.5 4.5,14 7.5,14 10.5,14 13,11.5 13,8.5 13,5.5 10.5,3 7.5,3 z M 7.5,4 C 10,4 12,6 12,8.5 12,11 10,13 7.5,13 5,13 3,11 3,8.5 3,6 5,4 7.5,4 z" />
  <path
     style="opacity:0"
     id="path6"
     fill="#fff"
     opacity="0.8"
     d="M 11.8,8.4 A 4.4,4.4 0 0 1 3,8.4 4.4,4.4 0 1 1 11.8,8.4 z" />
</svg>
