<?xml version="1.0" encoding="UTF-8" standalone="no"?>
<svg
   xmlns:dc="http://purl.org/dc/elements/1.1/"
   xmlns:cc="http://creativecommons.org/ns#"
   xmlns:rdf="http://www.w3.org/1999/02/22-rdf-syntax-ns#"
   xmlns:svg="http://www.w3.org/2000/svg"
   xmlns="http://www.w3.org/2000/svg"
   version="1.1"
   id="svg2"
   viewBox="0 0 16 16">
  <metadata
     id="metadata14">
    <rdf:RDF>
      <cc:Work
         rdf:about="">
        <dc:format>image/svg+xml</dc:format>
        <dc:type
           rdf:resource="http://purl.org/dc/dcmitype/StillImage" />
        <dc:title></dc:title>
      </cc:Work>
    </rdf:RDF>
  </metadata>
  <defs
     id="defs12" />
  <path
     style="fill:#000000;fill-opacity:1;opacity:0.1"
     id="path4"
     fill="#fff"
     opacity="0.8"
     d="M 3.1,4 C 3,4 3,4 3,4.1 V 12.9 C 3,13 3,13 3.1,13 H 11.9 C 12,13 12,13 12,12.9 V 4.1 C 12,4 12,4 11.9,4 H 3.1 z" />
  <path
     style="opacity:0.35"
     id="path6"
     opacity="0.1"
     d="M 3.1,3 C 2.5,3 2,3.5 2,4.1 V 12.9 C 2,13.5 2.5,14 3.1,14 H 11.9 C 12.5,14 13,13.5 13,12.9 V 4.1 C 13,3.5 12.5,3 11.9,3 H 3.1 z M 3,4 C 3,4 3.1,4 3.1,4 H 11.9 C 12,4 12,4 12,4.1 V 12.9 C 12,13 12,13 11.9,13 H 3.1 C 3,13 3,13 3,12.9 V 4.1 C 3,4.1 3,4 3,4 z" />
  <path
     style="fill:#888888;fill-opacity:1"
     id="path8"
     color="#000"
     fill="#5a5a5a"
     d="M 4.7,7 A 0.80622615,1.0077822 0 0 0 4.9,9 H 10.2 A 0.8,1 0 0 0 10.2,7 H 4.9 A 0.8,1 0 0 0 4.7,7 z" />
</svg>
