<?xml version="1.0" encoding="UTF-8" standalone="no"?>
<svg
   xmlns:dc="http://purl.org/dc/elements/1.1/"
   xmlns:cc="http://creativecommons.org/ns#"
   xmlns:rdf="http://www.w3.org/1999/02/22-rdf-syntax-ns#"
   xmlns:svg="http://www.w3.org/2000/svg"
   xmlns="http://www.w3.org/2000/svg"
   xmlns:sodipodi="http://sodipodi.sourceforge.net/DTD/sodipodi-0.dtd"
   xmlns:inkscape="http://www.inkscape.org/namespaces/inkscape"
   viewBox="0 0 296.3293 183.96991"
   id="svg2"
   version="1.1"
   inkscape:version="0.91 r13725"
   sodipodi:docname="logo.svg"
   width="296.32928"
   height="183.96991">
  <metadata
     id="metadata20">
    <rdf:RDF>
      <cc:Work
         rdf:about="">
        <dc:format>image/svg+xml</dc:format>
        <dc:type
           rdf:resource="http://purl.org/dc/dcmitype/StillImage" />
        <dc:title></dc:title>
      </cc:Work>
    </rdf:RDF>
  </metadata>
  <defs
     id="defs18">
    <filter
       inkscape:collect="always"
       style="color-interpolation-filters:sRGB"
       id="filter4155"
       x="-0.019274551"
       width="1.0385491"
       y="-0.031795032"
       height="1.06359">
      <feGaussianBlur
         inkscape:collect="always"
         stdDeviation="2.2915039"
         id="feGaussianBlur4157" />
    </filter>
  </defs>
  <sodipodi:namedview
     pagecolor="#333333"
     bordercolor="#666666"
     borderopacity="1"
     objecttolerance="10"
     gridtolerance="10"
     guidetolerance="10"
     inkscape:pageopacity="1"
     inkscape:pageshadow="2"
     inkscape:window-width="1366"
     inkscape:window-height="743"
     id="namedview16"
     showgrid="false"
     inkscape:zoom="1.9068393"
     inkscape:cx="97.3498"
     inkscape:cy="91.440308"
     inkscape:window-x="0"
     inkscape:window-y="25"
     inkscape:window-maximized="1"
     inkscape:current-layer="g6"
     fit-margin-top="0"
     fit-margin-left="0"
     fit-margin-right="0"
     fit-margin-bottom="0" />
  <path
     d="m 157.16961,19.406609 c -2.44,0.001 -4.09,0.563 -4.94,1.688 -0.65,0.938 -1.78,3.328 -3.37,7.125 -2.63,6.234 -4.78,12.156 -6.47,17.781 -1.55,5.157 -2.71,9.735 -3.5,13.719 -0.75,3.984 -1.3,7.484 -1.63,10.531 -0.33,3 -0.64,5.797 -0.97,8.375 0.06,-0.103 0.11,-0.209 0.16,-0.312 0.27,-2.205 0.54,-4.472 0.81,-6.969 0.33,-3.047 0.88,-6.547 1.63,-10.531 0.79,-3.985 1.95,-8.563 3.5,-13.719 1.69,-5.625 3.84,-11.547 6.47,-17.781 1.59,-3.797 2.72,-6.156 3.37,-7.094 0.85,-1.125 2.5,-1.687 4.94,-1.688 1.64,0.001 2.8,0.579 3.5,1.75 0.64,1.028 0.97,2.651 1.03,4.813 0.01,-0.173 0.03,-0.345 0.03,-0.5 0,-2.484 -0.36,-4.281 -1.06,-5.406 -0.7,-1.172 -1.86,-1.781 -3.5,-1.782 z m 16.34,2.938 c -0.05,2.644 -0.47,5.644 -1.31,9.031 -0.84,3.563 -2.06,7.391 -3.66,11.469 -1.54,4.078 -3.37,8.313 -5.53,12.719 -2.11,4.406 -4.43,8.812 -6.97,13.218 -2.53,4.36 -5.21,8.672 -8.03,12.938 -2.76,4.219 -5.59,8.172 -8.5,11.875 l -0.12,1.125 c 0.06,-0.029 0.1,-0.034 0.15,-0.063 2.9,-3.693 5.72,-7.638 8.47,-11.843 2.82,-4.266 5.5,-8.578 8.03,-12.938 2.54,-4.406 4.86,-8.812 6.97,-13.219 2.16,-4.406 3.99,-8.64 5.53,-12.718 1.6,-4.078 2.82,-7.906 3.66,-11.469 0.89,-3.609 1.34,-6.797 1.34,-9.563 0,-0.196 -0.02,-0.37 -0.03,-0.562 z m -140.810001,10.156 c -0.281,0 -0.89,0.407 -1.875,1.25 -0.937,0.844 -2.047,2.032 -3.312,3.531 -1.219,1.454 -2.516,3.157 -3.875,5.125 -1.36,1.922 -2.594,3.969 -3.719,6.125 -0.75,1.407 -1.469,2.094 -2.125,2.094 -0.469,0 -0.891,-0.297 -1.312,-0.906 -0.422,-0.656 -0.797,-1.484 -1.1254,-2.469 -0.3282,-0.984 -0.6563,-2.062 -0.9375,-3.281 -0.2344,-1.219 -0.4376,-2.406 -0.625,-3.531 -0.1407,-1.172 -0.2501,-2.219 -0.3438,-3.157 -0.0781,-0.82 -0.112,-1.38 -0.125,-1.875 -0.0048,0.245 -0.0312,0.47 -0.0312,0.719 -10e-5,0.516 0.0624,1.266 0.1562,2.25 0.0937,0.938 0.2031,1.985 0.3438,3.156 0.1874,1.126 0.3906,2.313 0.625,3.532 0.2812,1.219 0.6093,2.328 0.9375,3.312 0.3284,0.985 0.7034,1.782 1.1254,2.438 0.421,0.609 0.843,0.937 1.312,0.937 0.656,0 1.375,-0.718 2.125,-2.125 1.125,-2.156 2.359,-4.203 3.719,-6.125 1.359,-1.968 2.656,-3.672 3.875,-5.125 1.265,-1.5 2.375,-2.656 3.312,-3.5 0.985,-0.843 1.594,-1.281 1.875,-1.281 2.344,0 4.453,0.578 6.282,1.75 1.875,1.125 3.5,2.688 4.906,4.656 1.453,1.922 2.687,4.172 3.719,6.75 1.078,2.532 2,5.188 2.75,8 0.75,2.813 1.39,5.672 1.906,8.531 0.515,2.86 0.969,5.579 1.344,8.157 l 0.406,1.343 c 0.017,-0.021 0.225,-0.288 0.219,-0.281 l -0.625,-2.187 c -0.375,-2.578 -0.829,-5.297 -1.344,-8.157 -0.516,-2.859 -1.156,-5.687 -1.906,-8.5 -0.75,-2.812 -1.672,-5.468 -2.75,-8 -1.032,-2.578 -2.266,-4.828 -3.719,-6.75 -1.406,-1.968 -3.031,-3.531 -4.906,-4.656 -1.829,-1.172 -3.938,-1.75 -6.282,-1.75 z m 90.130001,2.188 c -0.12,4.173 -1.38,7.379 -3.79,9.562 -2.48,2.25 -5.68,3.375 -9.62,3.375 -0.47,0 -0.78,-0.265 -0.97,-0.781 -0.19,-0.562 -0.33,-1.234 -0.37,-2.031 -0.04,-0.636 -0.06,-1.369 -0.07,-2.094 0,0.199 0.01,0.386 0,0.594 0,0.937 0.02,1.797 0.07,2.593 0.04,0.797 0.18,1.469 0.37,2.032 0.19,0.515 0.5,0.781 0.97,0.781 3.94,0 7.14,-1.125 9.62,-3.375 2.54,-2.297 3.82,-5.687 3.82,-10.188 -0.01,-0.156 -0.03,-0.312 -0.03,-0.468 z m -16.07,2.031 c -0.93,0 -2.107,0.484 -3.466,1.469 -1.313,0.937 -2.766,2.25 -4.406001,3.937 -1.641,1.688 -3.422,3.672 -5.344,5.969 -1.875,2.297 -3.828,4.797 -5.844,7.469 -2.015,2.672 -4.062,5.469 -6.125,8.375 -2.015,2.906 -4,5.812 -5.968,8.718 0.071,0.268 0.148,0.516 0.218,0.782 1.9,-2.802 3.807,-5.605 5.75,-8.407 2.063,-2.906 4.11,-5.703 6.125,-8.375 2.016,-2.671 3.969,-5.14 5.844,-7.437 1.922,-2.297 3.703,-4.312 5.344,-6 1.640001,-1.687 3.093001,-3 4.406001,-3.938 1.359,-0.984 2.536,-1.468 3.466,-1.468 0.42,0 0.72,0.281 0.91,0.843 0.19,0.516 0.3,1.172 0.34,1.969 0.02,0.234 0.03,0.501 0.03,0.75 0.02,-0.661 0.01,-1.277 -0.03,-1.844 -0.04,-0.796 -0.15,-1.453 -0.34,-1.968 -0.19,-0.563 -0.49,-0.844 -0.91,-0.844 z m 91.32,42.75 c -1.93,0 -3.55,0.469 -4.91,1.406 -1.36,0.891 -2.55,2.094 -3.53,3.594 -0.94,1.453 -1.88,3.531 -2.81,6.25 -0.94,2.672 -1.61,4.922 -2.04,6.75 -0.37,1.828 -0.59,3.594001 -0.68,5.281001 -0.1,1.641 -0.16,2.999 -0.16,4.129 l 0,0.43 c 0.01,-0.99 0.08,-2.12 0.16,-3.465 0.09,-1.688 0.31,-3.453 0.68,-5.281001 0.43,-1.828 1.1,-4.078 2.04,-6.75 0.93,-2.719 1.87,-4.797 2.81,-6.25 0.98,-1.5 2.17,-2.703 3.53,-3.594 1.36,-0.938 2.98,-1.406 4.91,-1.406 0.79,0 1.32,0.375 1.56,1.125 0.23,0.75 0.34,1.687 0.34,2.812 0.01,0.278 0,0.452 0,0.688 0.02,-0.448 0.03,-1.011 0,-1.782 0,-1.125 -0.11,-2.062 -0.34,-2.812 -0.24,-0.75 -0.77,-1.125 -1.56,-1.125 z m 54.71,0.406 c -2.01,0 -3.76,0.375 -5.21,1.125 -1.41,0.75 -2.58,1.75 -3.57,2.969 -0.93,1.172 -1.73,2.516 -2.34,4.062 -0.56,1.5 -1.24,3.375 -2.03,5.625 -0.75,2.25 -1.16,4.11 -1.25,5.563 -0.1,1.453001 -0.16,2.687001 -0.16,3.719001 l 0.03,0 c 0.02,-0.787 0.06,-1.648 0.13,-2.625 0.09,-1.453001 0.5,-3.282001 1.25,-5.532001 0.79,-2.25 1.47,-4.125 2.03,-5.625 0.61,-1.546 1.41,-2.921 2.34,-4.093 0.99,-1.219 2.16,-2.188 3.57,-2.938 1.45,-0.75 3.2,-1.125 5.21,-1.125 1.13,0 2.07,0.672 2.82,2.031 0.71,1.218 1.08,2.743 1.15,4.563 0.02,-0.156 0.03,-0.321 0.03,-0.469 0,-2.109 -0.39,-3.828 -1.18,-5.187 -0.75,-1.36 -1.69,-2.063 -2.82,-2.063 z m -38.28,3.094 c -0.05,1.336 -0.24,2.635 -0.59,3.937 -0.42,1.547 -1.25,3.391 -2.47,5.5 -1.22,2.063 -2.42,3.469 -3.59,4.219 -1.13,0.75 -2.43,1.125 -3.88,1.125 -2.25,0 -3.69,-0.578 -4.34,-1.75 -0.65,-1.094 -1.02,-2.12 -1.13,-3.062 -0.15,1.238 0.22,2.62 1.13,4.156 0.65,1.172 2.09,1.75 4.34,1.75 1.45,0 2.75,-0.375 3.88,-1.125 1.17,-0.75 2.37,-2.156 3.59,-4.219 1.22,-2.109 2.05,-3.922 2.47,-5.469 0.42,-1.546 0.62,-3.125 0.62,-4.718 0,-0.118 -0.02,-0.228 -0.03,-0.344 z m 55.19,1.75 c -0.14,2.734 -1.07,5.76 -2.84,9.094 -1.88,3.609 -4.1,6.703001 -6.63,9.281001 -2.53,2.575 -5.55,4.855 -9.06,6.875 -3.47,2.02 -7.24,3.59 -11.31,4.72 0.19,0.34 0.37,0.63 0.56,0.94 3.86,-1.12 7.44,-2.61 10.75,-4.54 3.51,-2.01 6.53,-4.32 9.06,-6.901 2.53,-2.578 4.75,-5.672001 6.63,-9.282001 1.92,-3.609 2.87,-6.875 2.87,-9.781 0,-0.14 -0.03,-0.267 -0.03,-0.406 z m -210.000001,4.094 c -5.062,7.593 -9.781,14.703001 -14.187,21.316001 -1.875,2.81 -3.766,5.64 -5.688,8.5 -1.922,2.86 -3.765,5.56 -5.5,8.09 -1.687,2.53 -3.203,4.8 -4.562,6.81 -1.36,1.97 -2.453,3.53 -3.25,4.66 -1.125,1.55 -2.735,2.78 -4.844,3.72 -2.062,0.98 -4.234,1.47 -6.5312,1.47 -3.2344,0 -5.6562997,-0.66 -7.2499997,-1.97 -1.4608,-1.21 -2.2219,-2.73 -2.3437,-4.57 -0.013824,0.2 -0.031251,0.4 -0.03125,0.6 -1.8e-5,2.06 0.78123,3.75 2.375,5.06 1.5937,1.31 4.0155997,1.97 7.2499997,1.97 2.2972,0 4.4692,-0.48 6.5312,-1.47 2.109,-0.94 3.719,-2.17 4.844,-3.72 0.797,-1.12 1.89,-2.69 3.25,-4.65 1.359,-2.02 2.875,-4.29 4.562,-6.82 1.735,-2.53 3.578,-5.23 5.5,-8.09 1.922,-2.86 3.813,-5.69 5.688,-8.5 4.406,-6.609 9.125,-13.719001 14.187,-21.313001 1.547,7.266 3.016,13.610001 4.375,19.003001 1.36,5.39 2.703,10 4.063,13.84 1.406,3.8 2.859,6.95 4.312,9.44 1.5,2.44 3.11,4.33 4.844,5.69 1.734,1.4 3.641,2.36 5.75,2.87 2.109,0.56 4.5,0.84 7.125,0.84 2.25,0 4.734,-0.48 7.5,-1.46 2.766001,-0.94 5.656001,-2.35 8.661001,-4.22 2.3,-1.48 4.64,-3.22 7.03,-5.22 0.02,-0.41 0.06,-0.76 0.09,-1.19 -2.41,2.03 -4.79,3.82 -7.12,5.31 -3.005,1.88 -5.895,3.28 -8.661001,4.22 -2.766,0.99 -5.25,1.47 -7.5,1.47 -2.625,0 -5.016,-0.28 -7.125,-0.84 -2.109,-0.52 -4.016,-1.47 -5.75,-2.88 -1.734,-1.36 -3.344,-3.28 -4.844,-5.72 -1.453,-2.48 -2.906,-5.61 -4.312,-9.4 -1.36,-3.85 -2.703,-8.46 -4.063,-13.85 -1.359,-5.387 -2.828,-11.731001 -4.375,-18.996001 z m 72.090001,12.937001 c -0.18,0 -0.42,0.547 -0.65,1.625 -0.24,1.031 -0.46,2.374 -0.69,4.064 -0.19,1.64 -0.37,4.05 -0.56,7.19 -0.19,3.09 -0.36,5.64 -0.5,7.65 -0.14,1.97 -0.25,3.83 -0.35,5.56 -0.09,1.69 -0.15,3.02 -0.15,4 l 0,0.69 c 0.01,-0.94 0.07,-2.1 0.15,-3.59 0.1,-1.74 0.21,-3.6 0.35,-5.56 0.14,-2.02 0.31,-4.57 0.5,-7.66 0.19,-3.14 0.37,-5.52 0.56,-7.16 0.23,-1.68 0.45,-3.06 0.69,-4.09 0.23,-1.078 0.47,-1.625 0.65,-1.625 0.57,0 1.16,0.641 1.82,1.906 0.65,1.269 1.5,2.829 2.53,4.659 1.08,1.83 1.9,4.56 2.47,8.22 0.61,3.61 1,6.81 1.18,9.62 0.19,2.81 0.35,5.42 0.44,7.81 0.05,1.2 0.07,2.31 0.1,3.32 -0.02,-1.32 -0.03,-2.73 -0.1,-4.41 -0.09,-2.39 -0.25,-5 -0.44,-7.81 -0.18,-2.82 -0.57,-6.02 -1.18,-9.63 -0.57,-3.65 -1.39,-6.42 -2.47,-8.25 -1.03,-1.83 -1.88,-3.357 -2.53,-4.623 -0.66,-1.265 -1.25,-1.906 -1.82,-1.906 z m 34.5,2.875 c -0.39,0.122 -0.78,0.264 -1.18,0.375 -3.38,0.939 -6.49,1.629 -9.35,2.089 -3.33,0.52 -6.62,0.86 -9.9,1 0.19,0.36 0.37,0.71 0.56,1.07 3.09,-0.16 6.21,-0.49 9.34,-0.97 2.86,-0.47 5.97,-1.16 9.35,-2.1 0.38,-0.1 0.75,-0.22 1.12,-0.34 0.02,-0.369 0.03,-0.736 0.06,-1.124 z m -0.09,3.064 c 0,0.12 -0.03,0.26 -0.03,0.37 0,3.8 0.56,7.46 1.69,10.97 1.12,3.52 2.79,6.61 5,9.28 2.2,2.68 4.92,4.82 8.15,6.41 3.28,1.59 7.07,2.37 11.38,2.37 2.48,0 4.92,-0.37 7.31,-1.12 2.44,-0.8 4.77,-1.81 6.97,-3.03 2.25,-1.27 4.39,-2.69 6.41,-4.28 2.06,-1.6 3.95,-3.22 5.68,-4.91 1.42,-1.37 2.81,-2.81 4.16,-4.31 1.12,3.32 2.74,6.28 4.84,8.87 2.21,2.68 4.94,4.82 8.22,6.41 3.33,1.59 7.19,2.37 11.6,2.37 2.81,0 5.59,-0.29 8.31,-0.9 2.76,-0.66 5.4,-1.5 7.94,-2.53 2.57,-1.08 5.01,-2.3 7.31,-3.66 2.34,-1.36 4.51,-2.75 6.53,-4.16 4.64,-3.28 9.03,-7.04 13.16,-11.31 l -0.54,-0.56 c -3.97,4.04 -8.18,7.64 -12.62,10.78 -2.02,1.41 -4.19,2.8 -6.53,4.16 -2.3,1.36 -4.74,2.58 -7.31,3.65 -2.54,1.03 -5.18,1.88 -7.94,2.53 -2.72,0.61 -5.5,0.91 -8.31,0.91 -4.41,0 -8.27,-0.81 -11.6,-2.41 -3.28,-1.59 -6.01,-3.7 -8.22,-6.37 -2.1,-2.6 -3.72,-5.58 -4.84,-8.91 -1.35,1.51 -2.74,2.94 -4.16,4.32 -1.73,1.68 -3.62,3.34 -5.68,4.93 -2.02,1.6 -4.16,3.02 -6.41,4.28 -2.2,1.22 -4.53,2.24 -6.97,3.04 -2.39,0.75 -4.83,1.12 -7.31,1.12 -4.31,0 -8.1,-0.81 -11.38,-2.41 -3.23,-1.59 -5.95,-3.7 -8.15,-6.37 -2.21,-2.67 -3.88,-5.77 -5,-9.28 -1.06,-3.29 -1.59,-6.71 -1.66,-10.25 z m -11.19,30.72 c -0.01,0.47 -0.03,1.14 -0.15,2.31 -0.1,1.36 -0.28,3 -0.57,4.97 -0.28,1.97 -0.7,4.17 -1.21,6.56 -0.52,2.39 -1.19,4.78 -2.04,7.22 -0.79,2.44 -1.76,4.78 -2.93,7.03 -1.18,2.3 -2.57,4.33 -4.16,6.06 -1.55,1.78 -3.34,3.21 -5.41,4.28 -2.01,1.08 -4.32,1.63 -6.9,1.63 -2.58,0 -4.83,-0.58 -6.75,-1.75 -1.92,-1.17 -3.55,-2.77 -4.91,-4.78 -1.36,-1.97 -2.53,-4.3 -3.47,-6.97 -0.89,-2.63 -1.58,-5.42 -2.09,-8.38 -0.52,-2.95 -0.89,-5.96 -1.13,-9.06 -0.09,-1.52 -0.17,-3.02 -0.21,-4.5 0.04,1.84 0.1,3.69 0.21,5.6 0.24,3.09 0.61,6.11 1.13,9.06 0.51,2.95 1.2,5.75 2.09,8.37 0.94,2.68 2.11,5 3.47,6.97 1.36,2.02 2.99,3.61 4.91,4.78 1.92,1.18 4.17,1.75 6.75,1.75 2.58,0 4.89,-0.54 6.9,-1.62 2.07,-1.08 3.86,-2.5 5.41,-4.28 1.59,-1.74 2.98,-3.74 4.16,-6.03 1.17,-2.25 2.14,-4.6 2.93,-7.04 0.85,-2.43 1.52,-4.85 2.04,-7.25 0.51,-2.39 0.93,-4.56 1.21,-6.53 0.29,-1.97 0.47,-3.64 0.57,-5 0.14,-1.36 0.18,-2.26 0.18,-2.68 0,-0.25 -0.02,-0.48 -0.03,-0.72 z m -41.93,4.62 c -0.04,-1.22 -0.06,-2.43 -0.07,-3.62 l 0,0.37 c 0,1.07 0.04,2.16 0.07,3.25 z"
     id="path4"
     inkscape:connector-curvature="0"
     style="opacity:0.2;fill:#ffffff" />
  <g
     id="g6"
     style="opacity:0.6"
     transform="translate(5.4996093,5.499609)">
    <path
       id="path4149"
       d="m 153.14062,0 c -4.03,1e-4 -7.73132,1.21895 -11.11132,3.65625 -3.37,2.4377 -6.43899,5.765375 -9.20899,9.984375 -2.72,4.172 -5.18086,9.070313 -7.38086,14.695313 -2.21,5.578 -4.17015,11.531374 -5.91015,17.859374 -1.69,6.329 -3.15969,12.843875 -4.42969,19.546876 -1.22,6.656 -2.30047,13.171874 -3.23047,19.546874 -0.89,6.328001 -1.61969,12.351313 -2.17969,18.070318 -0.0496,0.49381 -0.0851,0.91254 -0.13281,1.39648 -3.26179,4.61405 -6.31631,8.078 -9.14648,10.34375 -3.519004,2.81 -6.70741,4.2207 -9.56641,4.2207 -2.25,0 -4.125,-0.49047 -5.625,-1.48047 -1.453,-1.03 -2.695562,-2.53 -3.726562,-4.5 -1.031,-2.01 -1.921876,-4.4689 -2.671876,-7.3789 -0.75,-2.95 -1.523312,-6.352315 -2.320312,-10.195315 -0.797,-3.891 -1.687875,-8.226812 -2.671875,-13.007813 -0.984,-4.781 -2.227563,-9.984374 -3.726563,-15.609374 1.968,-2.906 3.960563,-5.812751 5.976563,-8.71875 2.063,-2.906001 4.102187,-5.695188 6.117187,-8.367188 2.016001,-2.671 3.960938,-5.156125 5.835938,-7.453125 1.922,-2.296 3.70275,-4.289563 5.34375,-5.976563 1.641,-1.688 3.116687,-2.999499 4.429688,-3.9375 C 99.163687,31.711313 100.31,31.21875 101.25,31.21875 c 0.42,0 0.73016,0.28175 0.91016,0.84375 0.19,0.516 0.30937,1.17175 0.35937,1.96875 0.04,0.797 0.04,1.687875 0,2.671875 0,0.938 0.0203,1.804563 0.0703,2.601563 0.04,0.797 0.15961,1.476062 0.34961,2.039062 0.18,0.515 0.51047,0.773438 0.98047,0.773438 3.94,0 7.15086,-1.125 9.63086,-3.375 2.54,-2.297 3.79883,-5.695313 3.79883,-10.195313 -0.05,-2.25 -0.29953,-4.476687 -0.76953,-6.679687 -0.47,-2.203001 -1.15102,-4.147938 -2.04102,-5.835938 -0.84,-1.734 -1.87984,-3.117437 -3.08984,-4.148438 -1.22,-1.077999 -2.55977,-1.617187 -4.00977,-1.617187 -1.55,0 -3.34992,0.5625 -5.41992,1.6875 -2.058999,1.078 -4.28578,2.602313 -6.67578,4.570313 -2.344,1.922 -4.828125,4.218624 -7.453125,6.890624 -2.625,2.625001 -5.273313,5.485126 -7.945313,8.578126 -2.625,3.094 -5.226687,6.351437 -7.804687,9.773437 -2.579,3.375 -5.0155,6.797625 -7.3125,10.265625 -1.312,-6.328 -2.859625,-11.788812 -4.640625,-16.382812 -1.735,-4.593 -3.632312,-8.484875 -5.695312,-11.671876 -2.062001,-3.187999 -4.242063,-5.765374 -6.539063,-7.734374 -2.297,-1.968001 -4.664563,-3.468 -7.101563,-4.5 C 38.460563,10.664187 36.047375,9.9376 33.609375,9.5625 31.219375,9.1876 28.851813,9.0001 26.507812,9 c -2.672,10e-5 -5.156124,0.421625 -7.453124,1.265625 -2.250001,0.843 -4.21825,2.109875 -5.90625,3.796875 -1.687,1.688 -3.0004,3.820438 -3.9375005,6.398438 -0.9375,2.577999 -1.40625,5.602312 -1.40625,9.070312 0,0.516 0.046825,1.266 0.140625,2.25 0.0937,0.938 0.2108625,1.993063 0.3515625,3.164062 0.1874,1.125 0.3984125,2.296625 0.6328125,3.515626 0.2812,1.218999 0.5858625,2.319687 0.9140625,3.304687 0.3282,0.984 0.703,1.803938 1.125,2.460937 0.422,0.609 0.866938,0.914063 1.335938,0.914063 0.655999,0 1.359374,-0.702375 2.109374,-2.109375 1.125001,-2.156 2.366563,-4.195188 3.726563,-6.117188 1.359,-1.968999 2.648187,-3.679812 3.867187,-5.132812 1.265,-1.5 2.367688,-2.672625 3.304688,-3.515625 C 26.2975,27.421625 26.929938,27 27.210938,27 c 2.343999,0 4.429812,0.585812 6.257812,1.757812 1.875,1.125001 3.514875,2.672626 4.921875,4.640626 1.453,1.921999 2.695563,4.171999 3.726563,6.75 1.077999,2.531999 1.992187,5.203625 2.742187,8.015624 0.75,2.813 1.382438,5.648813 1.898437,8.507813 0.515001,2.859 0.960938,5.57825 1.335938,8.15625 l 0.632812,2.179687 c 0.046,-0.047 -0.468874,0.586438 -1.546874,1.898438 -1.032001,1.266 -2.461063,3.023438 -4.289063,5.273438 -1.829,2.202999 -3.937125,4.758062 -6.328125,7.664062 -2.343,2.906 -4.828125,5.953625 -7.453125,9.140625 -2.625,3.188 -5.273312,6.421078 -7.945313,9.705075 -2.625,3.23 -5.109124,6.28063 -7.453124,9.14063 -2.297,2.86 -4.3594005,5.44047 -6.1875005,7.73047 -1.8281,2.25 -3.23445,4.00929 -4.21875,5.27929 -2.2032,2.86 -3.304705992,5.52977 -3.3046875,8.00977 0,2.06 0.796925,3.75055 2.390625,5.06055 1.5938,1.32 4.0077875,1.9707 7.2421875,1.9707 2.2972005,0 4.4760625,-0.4907 6.5390625,-1.4707 2.109,-0.94 3.726563,-2.18047 4.851563,-3.73047 0.797,-1.13 1.874375,-2.67063 3.234374,-4.64063 1.359,-2.02 2.883313,-4.28836 4.570313,-6.81836 1.734,-2.53 3.563375,-5.22984 5.484375,-8.08984 1.922,-2.86 3.820312,-5.69172 5.695312,-8.51172 4.406001,-6.603999 9.140125,-13.704828 14.203126,-21.298828 1.547,7.266001 3.000374,13.594469 4.359374,18.980468 1.360001,5.4 2.719125,10.00938 4.078126,13.85938 1.406999,3.79 2.835062,6.92992 4.289062,9.41992 1.499,2.44 3.117563,4.32945 4.851562,5.68945 1.734001,1.41 3.655626,2.37063 5.765626,2.89063 2.109,0.56 4.476562,0.83984 7.101562,0.83984 2.25,0 4.757437,-0.49047 7.523438,-1.48047 2.765,-0.93 5.64839,-2.33875 8.650392,-4.21875 2.33111,-1.49191 4.70545,-3.25838 7.12109,-5.29101 -0.12435,1.85238 -0.22736,3.49718 -0.30078,4.87109 -0.1,2.63 -0.14062,4.05906 -0.14062,4.28906 0,2.86 0.0893,5.80938 0.27929,8.85938 0.23,3.09 0.6111,6.12031 1.1211,9.07031 0.52,2.95 1.21937,5.74109 2.10937,8.37109 0.94,2.67 2.09117,4.98899 3.45117,6.95899 1.36,2.02 2.99992,3.61125 4.91992,4.78125 1.92001,1.17 4.17001,1.75976 6.75,1.75976 2.58,0 4.87868,-0.54109 6.88868,-1.62109 2.06,-1.08 3.86992,-2.50906 5.41992,-4.28906 1.59,-1.73 2.97062,-3.75102 4.14062,-6.04102 1.18,-2.25 2.16094,-4.59906 2.96094,-7.03906 0.84,-2.43 1.51906,-4.85024 2.03906,-7.24024 0.51,-2.39 0.90946,-4.57101 1.18946,-6.54101 0.28,-1.97 0.47054,-3.62828 0.56054,-4.98828 0.14,-1.36 0.21094,-2.24992 0.21094,-2.66992 0,-3.61 -0.4907,-7.17141 -1.4707,-10.69141 -0.94,-3.56 -1.98992,-6.76891 -3.16992,-9.62891 -1.36,-3.33 -2.88032,-6.54086 -4.57032,-9.63086 3.28,-0.14 6.58993,-0.47023 9.91993,-0.99023 2.86,-0.47 5.96961,-1.16942 9.34961,-2.107422 0.39027,-0.108513 0.7734,-0.238828 1.16015,-0.357422 -0.0684,0.811942 -0.10937,1.592814 -0.10937,2.326174 0,3.8 0.56945,7.44875 1.68945,10.96875 1.13,3.52 2.79023,6.61125 4.99023,9.28125 2.21,2.67 4.93016,4.80843 8.16016,6.39844 3.28,1.58999 7.08062,2.39062 11.39062,2.39062 2.48,0 4.9186,-0.37914 7.3086,-1.11914 2.44,-0.8 4.76094,-1.81125 6.96094,-3.03125 2.25,-1.26 4.39039,-2.68906 6.40039,-4.28906 2.06,-1.59 3.95922,-3.22993 5.69922,-4.91993 1.42442,-1.37554 2.81143,-2.82057 4.16601,-4.32617 1.1162,3.33176 2.72066,6.29547 4.83399,8.89649 2.2,2.67 4.9407,4.80843 8.2207,6.39844 3.33,1.58999 7.19937,2.39062 11.60937,2.39062 2.81,0 5.57102,-0.30016 8.29102,-0.91016 2.77,-0.66 5.41922,-1.49906 7.94922,-2.53906 2.58,-1.07 5.01054,-2.29039 7.31054,-3.65039 2.34,-1.36 4.51907,-2.74039 6.53907,-4.15039 4.64,-3.28 9.02039,-7.05031 13.15039,-11.32031 l -9.07031,-9.421878 c -1.83,1.781998 -4.05969,3.681408 -6.67969,5.691408 -2.63,1.97 -5.41914,3.80023 -8.36914,5.49023 -2.95,1.69 -6.00063,3.09071 -9.14063,4.22071 -3.09,1.12 -6.04937,1.67968 -8.85937,1.67968 -0.89,0 -1.73125,-0.0893 -2.53125,-0.27929 -0.75,-0.18 -1.47969,-0.51047 -2.17969,-0.98047 -0.7,-0.47 -1.40938,-1.1307 -2.10938,-1.9707 -0.65999,-0.84001 -1.34101,-1.90016 -2.04101,-3.16016 4.08,-1.13 7.85031,-2.69875 11.32031,-4.71875 3.52,-2.01 6.54031,-4.31072 9.07031,-6.88672 2.53,-2.578 4.73938,-5.67125 6.60938,-9.28125 1.92,-3.609 2.88086,-6.867437 2.88086,-9.773438 0,-2.671999 -0.46039,-5.086187 -1.40039,-7.242187 -0.94,-2.156 -2.24946,-3.983375 -3.93946,-5.484375 -1.63999,-1.546 -3.58984,-2.742937 -5.83984,-3.585938 -2.25,-0.844 -4.68055,-1.265624 -7.31055,-1.265624 -3.23,-10e-7 -6.18937,0.585812 -8.85937,1.757812 -2.62,1.125 -5.00992,2.672625 -7.16992,4.640625 -2.11,1.922 -3.96078,4.172 -5.55078,6.75 -1.6,2.532 -2.92977,5.203625 -4.00977,8.015625 -1.03,2.813 -2.04125,6.047125 -3.03125,9.703125 -0.87758,3.232733 -1.33797,6.047466 -1.42969,8.490235 -0.73155,0.79115 -1.48542,1.59227 -2.28906,2.41211 -2.49,2.53 -5.11086,4.84898 -7.88086,6.95898 -2.72,2.11 -5.43039,3.86149 -8.15039,5.27149 -2.72,1.36 -5.20898,2.03906 -7.45898,2.03906 -2.29,0 -4.1711,-0.49047 -5.6211,-1.48047 -1.45,-1.03 -2.64984,-2.28906 -3.58984,-3.78906 -0.89,-1.55 -1.49836,-3.24031 -1.81836,-5.07031 -0.29,-1.82 -0.43164,-3.57954 -0.43164,-5.26954 0,-1.12 0.0506,-2.507432 0.14062,-4.148432 0.1,-1.687001 0.33094,-3.445438 0.71094,-5.273438 0.42,-1.828 1.09906,-4.078 2.03906,-6.75 0.93,-2.719 1.87055,-4.804812 2.81055,-6.257812 0.98,-1.500001 2.14977,-2.694938 3.50977,-3.585938 1.36,-0.937 2.99968,-1.40625 4.92968,-1.40625 0.79,0 1.31102,0.375 1.54102,1.125 0.24,0.75 0.34961,1.6875 0.34961,2.8125 0.05,1.313 0.0297,2.15625 -0.0703,2.53125 -0.7,2.718 -1.11977,4.453125 -1.25977,5.203125 -0.42,1.406 -0.0995,3.023562 0.98047,4.851563 0.66,1.171999 2.10937,1.757812 4.35937,1.757812 1.46,0 2.73915,-0.375 3.86915,-1.125 1.17,-0.75 2.36984,-2.15575 3.58984,-4.21875 1.21,-2.109 2.03094,-3.937375 2.46094,-5.484375 0.42,-1.547 0.6289,-3.116938 0.6289,-4.710937 0,-2.297 -0.4682,-4.429438 -1.4082,-6.398438 -0.89,-2.015 -2.15102,-3.749125 -3.79102,-5.203125 -1.6,-1.453 -3.53984,-2.578 -5.83984,-3.375 -2.25,-0.843 -4.71086,-1.265625 -7.38086,-1.265625 -3.14,0 -6.02844,0.585813 -8.64844,1.757812 -2.63,1.125 -5.01992,2.672625 -7.16992,4.640626 -2.11,1.921999 -3.99086,4.171999 -5.63086,6.75 -1.59,2.578 -2.95008,5.29725 -4.08008,8.15625 -0.17374,0.456758 -0.34313,0.946985 -0.51367,1.429687 -0.38696,0.227604 -0.76407,0.462272 -1.16601,0.679687 -2.44,1.359 -5.44,2.601563 -9,3.726563 -3.57,1.079 -7.67055,1.617187 -12.31055,1.617187 -0.47,10e-7 -0.86945,-0.04663 -1.18945,-0.140624 -0.33,-0.141 -0.66024,-0.280875 -0.99024,-0.421876 -0.28,-0.141 -0.61047,-0.257562 -0.98047,-0.351562 -0.38,-0.14 -0.86851,-0.210938 -1.47851,-0.210938 -0.51,0 -1.01047,0.07094 -1.48047,0.210938 -0.46,0.141 -1.16961,0.445063 -2.09961,0.914062 l 0.13867,-1.125 c 2.9,-3.704 5.74,-7.663812 8.5,-11.882812 2.82,-4.266 5.48953,-8.5775 8.01953,-12.9375 2.53,-4.406 4.85094,-8.81175 6.96094,-13.21875 2.16,-4.406 4.01078,-8.648562 5.55078,-12.726562 1.6,-4.078001 2.82016,-7.897938 3.66016,-11.460938 0.89,-3.609 1.33984,-6.7965 1.33984,-9.5625 0,-3.046 -0.50047,-5.601463 -1.48047,-7.6640625 -0.94,-2.1092 -2.12984,-3.7967 -3.58984,-5.0625 -1.45,-1.2656 -3.06961,-2.1795375 -4.84961,-2.7421875 C 156.40086,0.28138 154.73063,1.305e-4 153.14062,0 Z m -1.48046,13.921875 c 1.64,0 2.81953,0.585812 3.51953,1.757813 0.7,1.124999 1.05078,2.929062 1.05078,5.414062 0,1.781 -0.84125,4.758688 -2.53125,8.929688 -1.64,4.171999 -3.62875,8.507812 -5.96875,13.007812 -2.35,4.453 -5.03985,9.23475 -8.08985,14.34375 -3.04999,5.109 -6.00132,10.359 -8.86132,15.75 0.33,-2.578 0.66023,-5.367188 0.99023,-8.367188 0.32,-3.046999 0.86133,-6.562874 1.61133,-10.546874 0.8,-3.984001 1.96953,-8.554938 3.51953,-13.710938 1.69,-5.625 3.83875,-11.555062 6.46875,-17.789062 1.59,-3.797001 2.72109,-6.163563 3.37109,-7.101563 0.85,-1.125 2.48993,-1.6875 4.91993,-1.6875 z m 95.6289,60.46875 c 1.12,0 2.06055,0.679063 2.81055,2.039063 0.8,1.359 1.20117,3.093125 1.20117,5.203124 0,1.5 -0.82094,3.398313 -2.46094,5.695313 -1.64,2.297 -3.33031,4.125375 -5.07031,5.484375 -1.68,1.36 -3.53883,2.484 -5.54883,3.375 -1.97,0.843 -3.80023,1.265625 -5.49023,1.265625 0,-1.031 0.0504,-2.273562 0.15039,-3.726563 0.09,-1.453999 0.50976,-3.304687 1.25976,-5.554687 0.8,-2.25 1.47907,-4.125 2.03907,-5.625 0.61,-1.547 1.38031,-2.906125 2.32031,-4.078125 0.98,-1.219 2.17984,-2.203125 3.58984,-2.953125 1.45,-0.75 3.17922,-1.125 5.19922,-1.125 z M 126.2793,96.257812 c 0.56,10e-7 1.17008,0.633438 1.83008,1.898438 0.65999,1.266 1.50124,2.81453 2.53124,4.64453 1.08,1.83 1.89899,4.56875 2.45899,8.21875 0.61,3.61 1.01117,6.82063 1.20117,9.64063 0.18,2.81 0.31992,5.41078 0.41992,7.80078 0.09,2.39 0.13868,4.40883 0.13868,6.04883 -10e-6,2.44 -0.0893,4.96984 -0.2793,7.58984 -0.14,2.67 -0.47024,5.11055 -0.99024,7.31055 -0.47,2.25 -1.18968,4.11054 -2.17968,5.56054 -0.93,1.45 -2.20102,2.17969 -3.79102,2.17969 -0.52,0 -1.02883,-0.33023 -1.54883,-0.99023 -0.47,-0.61 -0.90984,-1.96032 -1.33984,-4.07032 -0.37,-2.11 -0.70047,-5.20906 -0.98047,-9.28906 -0.23,-4.07 -0.34961,-9.56117 -0.34961,-16.45117 0,-0.98 0.0487,-2.31977 0.13867,-4.00977 0.09,-1.73 0.21156,-3.57882 0.35156,-5.54882 0.14,-2.02 0.31024,-4.57188 0.49024,-7.67188 0.19,-3.14 0.37836,-5.52992 0.56836,-7.16992 0.23,-1.68 0.46117,-3.04322 0.70117,-4.07422 0.23,-1.078 0.43891,-1.617188 0.62891,-1.617188 z"
       style="fill:none;stroke:#407dec;stroke-width:3;stroke-miterlimit:4;stroke-dasharray:none;stroke-opacity:1;filter:url(#filter4155)"
       inkscape:connector-curvature="0" />
    <path
       d="m 153.14062,0 c -4.03,1e-4 -7.73132,1.21895 -11.11132,3.65625 -3.37,2.4377 -6.43899,5.765375 -9.20899,9.984375 -2.72,4.172 -5.18086,9.070313 -7.38086,14.695313 -2.21,5.578 -4.17015,11.531374 -5.91015,17.859374 -1.69,6.329 -3.15969,12.843875 -4.42969,19.546876 -1.22,6.656 -2.30047,13.171874 -3.23047,19.546874 -0.89,6.328001 -1.61969,12.351313 -2.17969,18.070318 -0.0496,0.49381 -0.0851,0.91254 -0.13281,1.39648 -3.26179,4.61405 -6.31631,8.078 -9.14648,10.34375 -3.519004,2.81 -6.70741,4.2207 -9.56641,4.2207 -2.25,0 -4.125,-0.49047 -5.625,-1.48047 -1.453,-1.03 -2.695562,-2.53 -3.726562,-4.5 -1.031,-2.01 -1.921876,-4.4689 -2.671876,-7.3789 -0.75,-2.95 -1.523312,-6.352315 -2.320312,-10.195315 -0.797,-3.891 -1.687875,-8.226812 -2.671875,-13.007813 -0.984,-4.781 -2.227563,-9.984374 -3.726563,-15.609374 1.968,-2.906 3.960563,-5.812751 5.976563,-8.71875 2.063,-2.906001 4.102187,-5.695188 6.117187,-8.367188 2.016001,-2.671 3.960938,-5.156125 5.835938,-7.453125 1.922,-2.296 3.70275,-4.289563 5.34375,-5.976563 1.641,-1.688 3.116687,-2.999499 4.429688,-3.9375 C 99.163687,31.711313 100.31,31.21875 101.25,31.21875 c 0.42,0 0.73016,0.28175 0.91016,0.84375 0.19,0.516 0.30937,1.17175 0.35937,1.96875 0.04,0.797 0.04,1.687875 0,2.671875 0,0.938 0.0203,1.804563 0.0703,2.601563 0.04,0.797 0.15961,1.476062 0.34961,2.039062 0.18,0.515 0.51047,0.773438 0.98047,0.773438 3.94,0 7.15086,-1.125 9.63086,-3.375 2.54,-2.297 3.79883,-5.695313 3.79883,-10.195313 -0.05,-2.25 -0.29953,-4.476687 -0.76953,-6.679687 -0.47,-2.203001 -1.15102,-4.147938 -2.04102,-5.835938 -0.84,-1.734 -1.87984,-3.117437 -3.08984,-4.148438 -1.22,-1.077999 -2.55977,-1.617187 -4.00977,-1.617187 -1.55,0 -3.34992,0.5625 -5.41992,1.6875 -2.058999,1.078 -4.28578,2.602313 -6.67578,4.570313 -2.344,1.922 -4.828125,4.218624 -7.453125,6.890624 -2.625,2.625001 -5.273313,5.485126 -7.945313,8.578126 -2.625,3.094 -5.226687,6.351437 -7.804687,9.773437 -2.579,3.375 -5.0155,6.797625 -7.3125,10.265625 -1.312,-6.328 -2.859625,-11.788812 -4.640625,-16.382812 -1.735,-4.593 -3.632312,-8.484875 -5.695312,-11.671876 -2.062001,-3.187999 -4.242063,-5.765374 -6.539063,-7.734374 -2.297,-1.968001 -4.664563,-3.468 -7.101563,-4.5 C 38.460563,10.664187 36.047375,9.9376 33.609375,9.5625 31.219375,9.1876 28.851813,9.0001 26.507812,9 c -2.672,10e-5 -5.156124,0.421625 -7.453124,1.265625 -2.250001,0.843 -4.21825,2.109875 -5.90625,3.796875 -1.687,1.688 -3.0004,3.820438 -3.9375005,6.398438 -0.9375,2.577999 -1.40625,5.602312 -1.40625,9.070312 0,0.516 0.046825,1.266 0.140625,2.25 0.0937,0.938 0.2108625,1.993063 0.3515625,3.164062 0.1874,1.125 0.3984125,2.296625 0.6328125,3.515626 0.2812,1.218999 0.5858625,2.319687 0.9140625,3.304687 0.3282,0.984 0.703,1.803938 1.125,2.460937 0.422,0.609 0.866938,0.914063 1.335938,0.914063 0.655999,0 1.359374,-0.702375 2.109374,-2.109375 1.125001,-2.156 2.366563,-4.195188 3.726563,-6.117188 1.359,-1.968999 2.648187,-3.679812 3.867187,-5.132812 1.265,-1.5 2.367688,-2.672625 3.304688,-3.515625 C 26.2975,27.421625 26.929938,27 27.210938,27 c 2.343999,0 4.429812,0.585812 6.257812,1.757812 1.875,1.125001 3.514875,2.672626 4.921875,4.640626 1.453,1.921999 2.695563,4.171999 3.726563,6.75 1.077999,2.531999 1.992187,5.203625 2.742187,8.015624 0.75,2.813 1.382438,5.648813 1.898437,8.507813 0.515001,2.859 0.960938,5.57825 1.335938,8.15625 l 0.632812,2.179687 c 0.046,-0.047 -0.468874,0.586438 -1.546874,1.898438 -1.032001,1.266 -2.461063,3.023438 -4.289063,5.273438 -1.829,2.202999 -3.937125,4.758062 -6.328125,7.664062 -2.343,2.906 -4.828125,5.953625 -7.453125,9.140625 -2.625,3.188 -5.273312,6.421078 -7.945313,9.705075 -2.625,3.23 -5.109124,6.28063 -7.453124,9.14063 -2.297,2.86 -4.3594005,5.44047 -6.1875005,7.73047 -1.8281,2.25 -3.23445,4.00929 -4.21875,5.27929 -2.2032,2.86 -3.304705992,5.52977 -3.3046875,8.00977 0,2.06 0.796925,3.75055 2.390625,5.06055 1.5938,1.32 4.0077875,1.9707 7.2421875,1.9707 2.2972005,0 4.4760625,-0.4907 6.5390625,-1.4707 2.109,-0.94 3.726563,-2.18047 4.851563,-3.73047 0.797,-1.13 1.874375,-2.67063 3.234374,-4.64063 1.359,-2.02 2.883313,-4.28836 4.570313,-6.81836 1.734,-2.53 3.563375,-5.22984 5.484375,-8.08984 1.922,-2.86 3.820312,-5.69172 5.695312,-8.51172 4.406001,-6.603999 9.140125,-13.704828 14.203126,-21.298828 1.547,7.266001 3.000374,13.594469 4.359374,18.980468 1.360001,5.4 2.719125,10.00938 4.078126,13.85938 1.406999,3.79 2.835062,6.92992 4.289062,9.41992 1.499,2.44 3.117563,4.32945 4.851562,5.68945 1.734001,1.41 3.655626,2.37063 5.765626,2.89063 2.109,0.56 4.476562,0.83984 7.101562,0.83984 2.25,0 4.757437,-0.49047 7.523438,-1.48047 2.765,-0.93 5.64839,-2.33875 8.650392,-4.21875 2.33111,-1.49191 4.70545,-3.25838 7.12109,-5.29101 -0.12435,1.85238 -0.22736,3.49718 -0.30078,4.87109 -0.1,2.63 -0.14062,4.05906 -0.14062,4.28906 0,2.86 0.0893,5.80938 0.27929,8.85938 0.23,3.09 0.6111,6.12031 1.1211,9.07031 0.52,2.95 1.21937,5.74109 2.10937,8.37109 0.94,2.67 2.09117,4.98899 3.45117,6.95899 1.36,2.02 2.99992,3.61125 4.91992,4.78125 1.92001,1.17 4.17001,1.75976 6.75,1.75976 2.58,0 4.87868,-0.54109 6.88868,-1.62109 2.06,-1.08 3.86992,-2.50906 5.41992,-4.28906 1.59,-1.73 2.97062,-3.75102 4.14062,-6.04102 1.18,-2.25 2.16094,-4.59906 2.96094,-7.03906 0.84,-2.43 1.51906,-4.85024 2.03906,-7.24024 0.51,-2.39 0.90946,-4.57101 1.18946,-6.54101 0.28,-1.97 0.47054,-3.62828 0.56054,-4.98828 0.14,-1.36 0.21094,-2.24992 0.21094,-2.66992 0,-3.61 -0.4907,-7.17141 -1.4707,-10.69141 -0.94,-3.56 -1.98992,-6.76891 -3.16992,-9.62891 -1.36,-3.33 -2.88032,-6.54086 -4.57032,-9.63086 3.28,-0.14 6.58993,-0.47023 9.91993,-0.99023 2.86,-0.47 5.96961,-1.16942 9.34961,-2.107422 0.39027,-0.108513 0.7734,-0.238828 1.16015,-0.357422 -0.0684,0.811942 -0.10937,1.592814 -0.10937,2.326174 0,3.8 0.56945,7.44875 1.68945,10.96875 1.13,3.52 2.79023,6.61125 4.99023,9.28125 2.21,2.67 4.93016,4.80843 8.16016,6.39844 3.28,1.58999 7.08062,2.39062 11.39062,2.39062 2.48,0 4.9186,-0.37914 7.3086,-1.11914 2.44,-0.8 4.76094,-1.81125 6.96094,-3.03125 2.25,-1.26 4.39039,-2.68906 6.40039,-4.28906 2.06,-1.59 3.95922,-3.22993 5.69922,-4.91993 1.42442,-1.37554 2.81143,-2.82057 4.16601,-4.32617 1.1162,3.33176 2.72066,6.29547 4.83399,8.89649 2.2,2.67 4.9407,4.80843 8.2207,6.39844 3.33,1.58999 7.19937,2.39062 11.60937,2.39062 2.81,0 5.57102,-0.30016 8.29102,-0.91016 2.77,-0.66 5.41922,-1.49906 7.94922,-2.53906 2.58,-1.07 5.01054,-2.29039 7.31054,-3.65039 2.34,-1.36 4.51907,-2.74039 6.53907,-4.15039 4.64,-3.28 9.02039,-7.05031 13.15039,-11.32031 l -9.07031,-9.421878 c -1.83,1.781998 -4.05969,3.681408 -6.67969,5.691408 -2.63,1.97 -5.41914,3.80023 -8.36914,5.49023 -2.95,1.69 -6.00063,3.09071 -9.14063,4.22071 -3.09,1.12 -6.04937,1.67968 -8.85937,1.67968 -0.89,0 -1.73125,-0.0893 -2.53125,-0.27929 -0.75,-0.18 -1.47969,-0.51047 -2.17969,-0.98047 -0.7,-0.47 -1.40938,-1.1307 -2.10938,-1.9707 -0.65999,-0.84001 -1.34101,-1.90016 -2.04101,-3.16016 4.08,-1.13 7.85031,-2.69875 11.32031,-4.71875 3.52,-2.01 6.54031,-4.31072 9.07031,-6.88672 2.53,-2.578 4.73938,-5.67125 6.60938,-9.28125 1.92,-3.609 2.88086,-6.867437 2.88086,-9.773438 0,-2.671999 -0.46039,-5.086187 -1.40039,-7.242187 -0.94,-2.156 -2.24946,-3.983375 -3.93946,-5.484375 -1.63999,-1.546 -3.58984,-2.742937 -5.83984,-3.585938 -2.25,-0.844 -4.68055,-1.265624 -7.31055,-1.265624 -3.23,-10e-7 -6.18937,0.585812 -8.85937,1.757812 -2.62,1.125 -5.00992,2.672625 -7.16992,4.640625 -2.11,1.922 -3.96078,4.172 -5.55078,6.75 -1.6,2.532 -2.92977,5.203625 -4.00977,8.015625 -1.03,2.813 -2.04125,6.047125 -3.03125,9.703125 -0.87758,3.232733 -1.33797,6.047466 -1.42969,8.490235 -0.73155,0.79115 -1.48542,1.59227 -2.28906,2.41211 -2.49,2.53 -5.11086,4.84898 -7.88086,6.95898 -2.72,2.11 -5.43039,3.86149 -8.15039,5.27149 -2.72,1.36 -5.20898,2.03906 -7.45898,2.03906 -2.29,0 -4.1711,-0.49047 -5.6211,-1.48047 -1.45,-1.03 -2.64984,-2.28906 -3.58984,-3.78906 -0.89,-1.55 -1.49836,-3.24031 -1.81836,-5.07031 -0.29,-1.82 -0.43164,-3.57954 -0.43164,-5.26954 0,-1.12 0.0506,-2.507432 0.14062,-4.148432 0.1,-1.687001 0.33094,-3.445438 0.71094,-5.273438 0.42,-1.828 1.09906,-4.078 2.03906,-6.75 0.93,-2.719 1.87055,-4.804812 2.81055,-6.257812 0.98,-1.500001 2.14977,-2.694938 3.50977,-3.585938 1.36,-0.937 2.99968,-1.40625 4.92968,-1.40625 0.79,0 1.31102,0.375 1.54102,1.125 0.24,0.75 0.34961,1.6875 0.34961,2.8125 0.05,1.313 0.0297,2.15625 -0.0703,2.53125 -0.7,2.718 -1.11977,4.453125 -1.25977,5.203125 -0.42,1.406 -0.0995,3.023562 0.98047,4.851563 0.66,1.171999 2.10937,1.757812 4.35937,1.757812 1.46,0 2.73915,-0.375 3.86915,-1.125 1.17,-0.75 2.36984,-2.15575 3.58984,-4.21875 1.21,-2.109 2.03094,-3.937375 2.46094,-5.484375 0.42,-1.547 0.6289,-3.116938 0.6289,-4.710937 0,-2.297 -0.4682,-4.429438 -1.4082,-6.398438 -0.89,-2.015 -2.15102,-3.749125 -3.79102,-5.203125 -1.6,-1.453 -3.53984,-2.578 -5.83984,-3.375 -2.25,-0.843 -4.71086,-1.265625 -7.38086,-1.265625 -3.14,0 -6.02844,0.585813 -8.64844,1.757812 -2.63,1.125 -5.01992,2.672625 -7.16992,4.640626 -2.11,1.921999 -3.99086,4.171999 -5.63086,6.75 -1.59,2.578 -2.95008,5.29725 -4.08008,8.15625 -0.17374,0.456758 -0.34313,0.946985 -0.51367,1.429687 -0.38696,0.227604 -0.76407,0.462272 -1.16601,0.679687 -2.44,1.359 -5.44,2.601563 -9,3.726563 -3.57,1.079 -7.67055,1.617187 -12.31055,1.617187 -0.47,10e-7 -0.86945,-0.04663 -1.18945,-0.140624 -0.33,-0.141 -0.66024,-0.280875 -0.99024,-0.421876 -0.28,-0.141 -0.61047,-0.257562 -0.98047,-0.351562 -0.38,-0.14 -0.86851,-0.210938 -1.47851,-0.210938 -0.51,0 -1.01047,0.07094 -1.48047,0.210938 -0.46,0.141 -1.16961,0.445063 -2.09961,0.914062 l 0.13867,-1.125 c 2.9,-3.704 5.74,-7.663812 8.5,-11.882812 2.82,-4.266 5.48953,-8.5775 8.01953,-12.9375 2.53,-4.406 4.85094,-8.81175 6.96094,-13.21875 2.16,-4.406 4.01078,-8.648562 5.55078,-12.726562 1.6,-4.078001 2.82016,-7.897938 3.66016,-11.460938 0.89,-3.609 1.33984,-6.7965 1.33984,-9.5625 0,-3.046 -0.50047,-5.601463 -1.48047,-7.6640625 -0.94,-2.1092 -2.12984,-3.7967 -3.58984,-5.0625 -1.45,-1.2656 -3.06961,-2.1795375 -4.84961,-2.7421875 C 156.40086,0.28138 154.73063,1.305e-4 153.14062,0 Z m -1.48046,13.921875 c 1.64,0 2.81953,0.585812 3.51953,1.757813 0.7,1.124999 1.05078,2.929062 1.05078,5.414062 0,1.781 -0.84125,4.758688 -2.53125,8.929688 -1.64,4.171999 -3.62875,8.507812 -5.96875,13.007812 -2.35,4.453 -5.03985,9.23475 -8.08985,14.34375 -3.04999,5.109 -6.00132,10.359 -8.86132,15.75 0.33,-2.578 0.66023,-5.367188 0.99023,-8.367188 0.32,-3.046999 0.86133,-6.562874 1.61133,-10.546874 0.8,-3.984001 1.96953,-8.554938 3.51953,-13.710938 1.69,-5.625 3.83875,-11.555062 6.46875,-17.789062 1.59,-3.797001 2.72109,-6.163563 3.37109,-7.101563 0.85,-1.125 2.48993,-1.6875 4.91993,-1.6875 z m 95.6289,60.46875 c 1.12,0 2.06055,0.679063 2.81055,2.039063 0.8,1.359 1.20117,3.093125 1.20117,5.203124 0,1.5 -0.82094,3.398313 -2.46094,5.695313 -1.64,2.297 -3.33031,4.125375 -5.07031,5.484375 -1.68,1.36 -3.53883,2.484 -5.54883,3.375 -1.97,0.843 -3.80023,1.265625 -5.49023,1.265625 0,-1.031 0.0504,-2.273562 0.15039,-3.726563 0.09,-1.453999 0.50976,-3.304687 1.25976,-5.554687 0.8,-2.25 1.47907,-4.125 2.03907,-5.625 0.61,-1.547 1.38031,-2.906125 2.32031,-4.078125 0.98,-1.219 2.17984,-2.203125 3.58984,-2.953125 1.45,-0.75 3.17922,-1.125 5.19922,-1.125 z M 126.2793,96.257812 c 0.56,10e-7 1.17008,0.633438 1.83008,1.898438 0.65999,1.266 1.50124,2.81453 2.53124,4.64453 1.08,1.83 1.89899,4.56875 2.45899,8.21875 0.61,3.61 1.01117,6.82063 1.20117,9.64063 0.18,2.81 0.31992,5.41078 0.41992,7.80078 0.09,2.39 0.13868,4.40883 0.13868,6.04883 -10e-6,2.44 -0.0893,4.96984 -0.2793,7.58984 -0.14,2.67 -0.47024,5.11055 -0.99024,7.31055 -0.47,2.25 -1.18968,4.11054 -2.17968,5.56054 -0.93,1.45 -2.20102,2.17969 -3.79102,2.17969 -0.52,0 -1.02883,-0.33023 -1.54883,-0.99023 -0.47,-0.61 -0.90984,-1.96032 -1.33984,-4.07032 -0.37,-2.11 -0.70047,-5.20906 -0.98047,-9.28906 -0.23,-4.07 -0.34961,-9.56117 -0.34961,-16.45117 0,-0.98 0.0487,-2.31977 0.13867,-4.00977 0.09,-1.73 0.21156,-3.57882 0.35156,-5.54882 0.14,-2.02 0.31024,-4.57188 0.49024,-7.67188 0.19,-3.14 0.37836,-5.52992 0.56836,-7.16992 0.23,-1.68 0.46117,-3.04322 0.70117,-4.07422 0.23,-1.078 0.43891,-1.617188 0.62891,-1.617188 z"
       id="path8"
       inkscape:connector-curvature="0"
       style="stroke:none;stroke-opacity:0.28627452;fill:#000000;fill-opacity:1" />
    <path
       style="fill:none;stroke:#407dec;stroke-width:1.00000009;stroke-miterlimit:4;stroke-dasharray:none;stroke-opacity:1;"
       d="m 153.14062,0 c -4.03,1e-4 -7.73132,1.21895 -11.11132,3.65625 -3.37,2.4377 -6.43899,5.765375 -9.20899,9.984375 -2.72,4.172 -5.18086,9.070313 -7.38086,14.695313 -2.21,5.578 -4.17015,11.531374 -5.91015,17.859374 -1.69,6.329 -3.15969,12.843875 -4.42969,19.546876 -1.22,6.656 -2.30047,13.171874 -3.23047,19.546874 -0.89,6.328001 -1.61969,12.351313 -2.17969,18.070318 -0.0496,0.49381 -0.0851,0.91254 -0.13281,1.39648 -3.26179,4.61405 -6.31631,8.078 -9.14648,10.34375 -3.519004,2.81 -6.70741,4.2207 -9.56641,4.2207 -2.25,0 -4.125,-0.49047 -5.625,-1.48047 -1.453,-1.03 -2.695562,-2.53 -3.726562,-4.5 -1.031,-2.01 -1.921876,-4.4689 -2.671876,-7.3789 -0.75,-2.95 -1.523312,-6.352315 -2.320312,-10.195315 -0.797,-3.891 -1.687875,-8.226812 -2.671875,-13.007813 -0.984,-4.781 -2.227563,-9.984374 -3.726563,-15.609374 1.968,-2.906 3.960563,-5.812751 5.976563,-8.71875 2.063,-2.906001 4.102187,-5.695188 6.117187,-8.367188 2.016001,-2.671 3.960938,-5.156125 5.835938,-7.453125 1.922,-2.296 3.70275,-4.289563 5.34375,-5.976563 1.641,-1.688 3.116687,-2.999499 4.429688,-3.9375 C 99.163687,31.711313 100.31,31.21875 101.25,31.21875 c 0.42,0 0.73016,0.28175 0.91016,0.84375 0.19,0.516 0.30937,1.17175 0.35937,1.96875 0.04,0.797 0.04,1.687875 0,2.671875 0,0.938 0.0203,1.804563 0.0703,2.601563 0.04,0.797 0.15961,1.476062 0.34961,2.039062 0.18,0.515 0.51047,0.773438 0.98047,0.773438 3.94,0 7.15086,-1.125 9.63086,-3.375 2.54,-2.297 3.79883,-5.695313 3.79883,-10.195313 -0.05,-2.25 -0.29953,-4.476687 -0.76953,-6.679687 -0.47,-2.203001 -1.15102,-4.147938 -2.04102,-5.835938 -0.84,-1.734 -1.87984,-3.117437 -3.08984,-4.148438 -1.22,-1.077999 -2.55977,-1.617187 -4.00977,-1.617187 -1.55,0 -3.34992,0.5625 -5.41992,1.6875 -2.058999,1.078 -4.28578,2.602313 -6.67578,4.570313 -2.344,1.922 -4.828125,4.218624 -7.453125,6.890624 -2.625,2.625001 -5.273313,5.485126 -7.945313,8.578126 -2.625,3.094 -5.226687,6.351437 -7.804687,9.773437 -2.579,3.375 -5.0155,6.797625 -7.3125,10.265625 -1.312,-6.328 -2.859625,-11.788812 -4.640625,-16.382812 -1.735,-4.593 -3.632312,-8.484875 -5.695312,-11.671876 -2.062001,-3.187999 -4.242063,-5.765374 -6.539063,-7.734374 -2.297,-1.968001 -4.664563,-3.468 -7.101563,-4.5 C 38.460563,10.664187 36.047375,9.9376 33.609375,9.5625 31.219375,9.1876 28.851813,9.0001 26.507812,9 c -2.672,10e-5 -5.156124,0.421625 -7.453124,1.265625 -2.250001,0.843 -4.21825,2.109875 -5.90625,3.796875 -1.687,1.688 -3.0004,3.820438 -3.9375005,6.398438 -0.9375,2.577999 -1.40625,5.602312 -1.40625,9.070312 0,0.516 0.046825,1.266 0.140625,2.25 0.0937,0.938 0.2108625,1.993063 0.3515625,3.164062 0.1874,1.125 0.3984125,2.296625 0.6328125,3.515626 0.2812,1.218999 0.5858625,2.319687 0.9140625,3.304687 0.3282,0.984 0.703,1.803938 1.125,2.460937 0.422,0.609 0.866938,0.914063 1.335938,0.914063 0.655999,0 1.359374,-0.702375 2.109374,-2.109375 1.125001,-2.156 2.366563,-4.195188 3.726563,-6.117188 1.359,-1.968999 2.648187,-3.679812 3.867187,-5.132812 1.265,-1.5 2.367688,-2.672625 3.304688,-3.515625 C 26.2975,27.421625 26.929938,27 27.210938,27 c 2.343999,0 4.429812,0.585812 6.257812,1.757812 1.875,1.125001 3.514875,2.672626 4.921875,4.640626 1.453,1.921999 2.695563,4.171999 3.726563,6.75 1.077999,2.531999 1.992187,5.203625 2.742187,8.015624 0.75,2.813 1.382438,5.648813 1.898437,8.507813 0.515001,2.859 0.960938,5.57825 1.335938,8.15625 l 0.632812,2.179687 c 0.046,-0.047 -0.468874,0.586438 -1.546874,1.898438 -1.032001,1.266 -2.461063,3.023438 -4.289063,5.273438 -1.829,2.202999 -3.937125,4.758062 -6.328125,7.664062 -2.343,2.906 -4.828125,5.953625 -7.453125,9.140625 -2.625,3.188 -5.273312,6.421078 -7.945313,9.705075 -2.625,3.23 -5.109124,6.28063 -7.453124,9.14063 -2.297,2.86 -4.3594005,5.44047 -6.1875005,7.73047 -1.8281,2.25 -3.23445,4.00929 -4.21875,5.27929 -2.2032,2.86 -3.304705992,5.52977 -3.3046875,8.00977 0,2.06 0.796925,3.75055 2.390625,5.06055 1.5938,1.32 4.0077875,1.9707 7.2421875,1.9707 2.2972005,0 4.4760625,-0.4907 6.5390625,-1.4707 2.109,-0.94 3.726563,-2.18047 4.851563,-3.73047 0.797,-1.13 1.874375,-2.67063 3.234374,-4.64063 1.359,-2.02 2.883313,-4.28836 4.570313,-6.81836 1.734,-2.53 3.563375,-5.22984 5.484375,-8.08984 1.922,-2.86 3.820312,-5.69172 5.695312,-8.51172 4.406001,-6.603999 9.140125,-13.704828 14.203126,-21.298828 1.547,7.266001 3.000374,13.594469 4.359374,18.980468 1.360001,5.4 2.719125,10.00938 4.078126,13.85938 1.406999,3.79 2.835062,6.92992 4.289062,9.41992 1.499,2.44 3.117563,4.32945 4.851562,5.68945 1.734001,1.41 3.655626,2.37063 5.765626,2.89063 2.109,0.56 4.476562,0.83984 7.101562,0.83984 2.25,0 4.757437,-0.49047 7.523438,-1.48047 2.765,-0.93 5.64839,-2.33875 8.650392,-4.21875 2.33111,-1.49191 4.70545,-3.25838 7.12109,-5.29101 -0.12435,1.85238 -0.22736,3.49718 -0.30078,4.87109 -0.1,2.63 -0.14062,4.05906 -0.14062,4.28906 0,2.86 0.0893,5.80938 0.27929,8.85938 0.23,3.09 0.6111,6.12031 1.1211,9.07031 0.52,2.95 1.21937,5.74109 2.10937,8.37109 0.94,2.67 2.09117,4.98899 3.45117,6.95899 1.36,2.02 2.99992,3.61125 4.91992,4.78125 1.92001,1.17 4.17001,1.75976 6.75,1.75976 2.58,0 4.87868,-0.54109 6.88868,-1.62109 2.06,-1.08 3.86992,-2.50906 5.41992,-4.28906 1.59,-1.73 2.97062,-3.75102 4.14062,-6.04102 1.18,-2.25 2.16094,-4.59906 2.96094,-7.03906 0.84,-2.43 1.51906,-4.85024 2.03906,-7.24024 0.51,-2.39 0.90946,-4.57101 1.18946,-6.54101 0.28,-1.97 0.47054,-3.62828 0.56054,-4.98828 0.14,-1.36 0.21094,-2.24992 0.21094,-2.66992 0,-3.61 -0.4907,-7.17141 -1.4707,-10.69141 -0.94,-3.56 -1.98992,-6.76891 -3.16992,-9.62891 -1.36,-3.33 -2.88032,-6.54086 -4.57032,-9.63086 3.28,-0.14 6.58993,-0.47023 9.91993,-0.99023 2.86,-0.47 5.96961,-1.16942 9.34961,-2.107422 0.39027,-0.108513 0.7734,-0.238828 1.16015,-0.357422 -0.0684,0.811942 -0.10937,1.592814 -0.10937,2.326174 0,3.8 0.56945,7.44875 1.68945,10.96875 1.13,3.52 2.79023,6.61125 4.99023,9.28125 2.21,2.67 4.93016,4.80843 8.16016,6.39844 3.28,1.58999 7.08062,2.39062 11.39062,2.39062 2.48,0 4.9186,-0.37914 7.3086,-1.11914 2.44,-0.8 4.76094,-1.81125 6.96094,-3.03125 2.25,-1.26 4.39039,-2.68906 6.40039,-4.28906 2.06,-1.59 3.95922,-3.22993 5.69922,-4.91993 1.42442,-1.37554 2.81143,-2.82057 4.16601,-4.32617 1.1162,3.33176 2.72066,6.29547 4.83399,8.89649 2.2,2.67 4.9407,4.80843 8.2207,6.39844 3.33,1.58999 7.19937,2.39062 11.60937,2.39062 2.81,0 5.57102,-0.30016 8.29102,-0.91016 2.77,-0.66 5.41922,-1.49906 7.94922,-2.53906 2.58,-1.07 5.01054,-2.29039 7.31054,-3.65039 2.34,-1.36 4.51907,-2.74039 6.53907,-4.15039 4.64,-3.28 9.02039,-7.05031 13.15039,-11.32031 l -9.07031,-9.421878 c -1.83,1.781998 -4.05969,3.681408 -6.67969,5.691408 -2.63,1.97 -5.41914,3.80023 -8.36914,5.49023 -2.95,1.69 -6.00063,3.09071 -9.14063,4.22071 -3.09,1.12 -6.04937,1.67968 -8.85937,1.67968 -0.89,0 -1.73125,-0.0893 -2.53125,-0.27929 -0.75,-0.18 -1.47969,-0.51047 -2.17969,-0.98047 -0.7,-0.47 -1.40938,-1.1307 -2.10938,-1.9707 -0.65999,-0.84001 -1.34101,-1.90016 -2.04101,-3.16016 4.08,-1.13 7.85031,-2.69875 11.32031,-4.71875 3.52,-2.01 6.54031,-4.31072 9.07031,-6.88672 2.53,-2.578 4.73938,-5.67125 6.60938,-9.28125 1.92,-3.609 2.88086,-6.867437 2.88086,-9.773438 0,-2.671999 -0.46039,-5.086187 -1.40039,-7.242187 -0.94,-2.156 -2.24946,-3.983375 -3.93946,-5.484375 -1.63999,-1.546 -3.58984,-2.742937 -5.83984,-3.585938 -2.25,-0.844 -4.68055,-1.265624 -7.31055,-1.265624 -3.23,-10e-7 -6.18937,0.585812 -8.85937,1.757812 -2.62,1.125 -5.00992,2.672625 -7.16992,4.640625 -2.11,1.922 -3.96078,4.172 -5.55078,6.75 -1.6,2.532 -2.92977,5.203625 -4.00977,8.015625 -1.03,2.813 -2.04125,6.047125 -3.03125,9.703125 -0.87758,3.232733 -1.33797,6.047466 -1.42969,8.490235 -0.73155,0.79115 -1.48542,1.59227 -2.28906,2.41211 -2.49,2.53 -5.11086,4.84898 -7.88086,6.95898 -2.72,2.11 -5.43039,3.86149 -8.15039,5.27149 -2.72,1.36 -5.20898,2.03906 -7.45898,2.03906 -2.29,0 -4.1711,-0.49047 -5.6211,-1.48047 -1.45,-1.03 -2.64984,-2.28906 -3.58984,-3.78906 -0.89,-1.55 -1.49836,-3.24031 -1.81836,-5.07031 -0.29,-1.82 -0.43164,-3.57954 -0.43164,-5.26954 0,-1.12 0.0506,-2.507432 0.14062,-4.148432 0.1,-1.687001 0.33094,-3.445438 0.71094,-5.273438 0.42,-1.828 1.09906,-4.078 2.03906,-6.75 0.93,-2.719 1.87055,-4.804812 2.81055,-6.257812 0.98,-1.500001 2.14977,-2.694938 3.50977,-3.585938 1.36,-0.937 2.99968,-1.40625 4.92968,-1.40625 0.79,0 1.31102,0.375 1.54102,1.125 0.24,0.75 0.34961,1.6875 0.34961,2.8125 0.05,1.313 0.0297,2.15625 -0.0703,2.53125 -0.7,2.718 -1.11977,4.453125 -1.25977,5.203125 -0.42,1.406 -0.0995,3.023562 0.98047,4.851563 0.66,1.171999 2.10937,1.757812 4.35937,1.757812 1.46,0 2.73915,-0.375 3.86915,-1.125 1.17,-0.75 2.36984,-2.15575 3.58984,-4.21875 1.21,-2.109 2.03094,-3.937375 2.46094,-5.484375 0.42,-1.547 0.6289,-3.116938 0.6289,-4.710937 0,-2.297 -0.4682,-4.429438 -1.4082,-6.398438 -0.89,-2.015 -2.15102,-3.749125 -3.79102,-5.203125 -1.6,-1.453 -3.53984,-2.578 -5.83984,-3.375 -2.25,-0.843 -4.71086,-1.265625 -7.38086,-1.265625 -3.14,0 -6.02844,0.585813 -8.64844,1.757812 -2.63,1.125 -5.01992,2.672625 -7.16992,4.640626 -2.11,1.921999 -3.99086,4.171999 -5.63086,6.75 -1.59,2.578 -2.95008,5.29725 -4.08008,8.15625 -0.17374,0.456758 -0.34313,0.946985 -0.51367,1.429687 -0.38696,0.227604 -0.76407,0.462272 -1.16601,0.679687 -2.44,1.359 -5.44,2.601563 -9,3.726563 -3.57,1.079 -7.67055,1.617187 -12.31055,1.617187 -0.47,10e-7 -0.86945,-0.04663 -1.18945,-0.140624 -0.33,-0.141 -0.66024,-0.280875 -0.99024,-0.421876 -0.28,-0.141 -0.61047,-0.257562 -0.98047,-0.351562 -0.38,-0.14 -0.86851,-0.210938 -1.47851,-0.210938 -0.51,0 -1.01047,0.07094 -1.48047,0.210938 -0.46,0.141 -1.16961,0.445063 -2.09961,0.914062 l 0.13867,-1.125 c 2.9,-3.704 5.74,-7.663812 8.5,-11.882812 2.82,-4.266 5.48953,-8.5775 8.01953,-12.9375 2.53,-4.406 4.85094,-8.81175 6.96094,-13.21875 2.16,-4.406 4.01078,-8.648562 5.55078,-12.726562 1.6,-4.078001 2.82016,-7.897938 3.66016,-11.460938 0.89,-3.609 1.33984,-6.7965 1.33984,-9.5625 0,-3.046 -0.50047,-5.601463 -1.48047,-7.6640625 -0.94,-2.1092 -2.12984,-3.7967 -3.58984,-5.0625 -1.45,-1.2656 -3.06961,-2.1795375 -4.84961,-2.7421875 C 156.40086,0.28138 154.73063,1.305e-4 153.14062,0 Z m -1.48046,13.921875 c 1.64,0 2.81953,0.585812 3.51953,1.757813 0.7,1.124999 1.05078,2.929062 1.05078,5.414062 0,1.781 -0.84125,4.758688 -2.53125,8.929688 -1.64,4.171999 -3.62875,8.507812 -5.96875,13.007812 -2.35,4.453 -5.03985,9.23475 -8.08985,14.34375 -3.04999,5.109 -6.00132,10.359 -8.86132,15.75 0.33,-2.578 0.66023,-5.367188 0.99023,-8.367188 0.32,-3.046999 0.86133,-6.562874 1.61133,-10.546874 0.8,-3.984001 1.96953,-8.554938 3.51953,-13.710938 1.69,-5.625 3.83875,-11.555062 6.46875,-17.789062 1.59,-3.797001 2.72109,-6.163563 3.37109,-7.101563 0.85,-1.125 2.48993,-1.6875 4.91993,-1.6875 z m 95.6289,60.46875 c 1.12,0 2.06055,0.679063 2.81055,2.039063 0.8,1.359 1.20117,3.093125 1.20117,5.203124 0,1.5 -0.82094,3.398313 -2.46094,5.695313 -1.64,2.297 -3.33031,4.125375 -5.07031,5.484375 -1.68,1.36 -3.53883,2.484 -5.54883,3.375 -1.97,0.843 -3.80023,1.265625 -5.49023,1.265625 0,-1.031 0.0504,-2.273562 0.15039,-3.726563 0.09,-1.453999 0.50976,-3.304687 1.25976,-5.554687 0.8,-2.25 1.47907,-4.125 2.03907,-5.625 0.61,-1.547 1.38031,-2.906125 2.32031,-4.078125 0.98,-1.219 2.17984,-2.203125 3.58984,-2.953125 1.45,-0.75 3.17922,-1.125 5.19922,-1.125 z M 126.2793,96.257812 c 0.56,10e-7 1.17008,0.633438 1.83008,1.898438 0.65999,1.266 1.50124,2.81453 2.53124,4.64453 1.08,1.83 1.89899,4.56875 2.45899,8.21875 0.61,3.61 1.01117,6.82063 1.20117,9.64063 0.18,2.81 0.31992,5.41078 0.41992,7.80078 0.09,2.39 0.13868,4.40883 0.13868,6.04883 -10e-6,2.44 -0.0893,4.96984 -0.2793,7.58984 -0.14,2.67 -0.47024,5.11055 -0.99024,7.31055 -0.47,2.25 -1.18968,4.11054 -2.17968,5.56054 -0.93,1.45 -2.20102,2.17969 -3.79102,2.17969 -0.52,0 -1.02883,-0.33023 -1.54883,-0.99023 -0.47,-0.61 -0.90984,-1.96032 -1.33984,-4.07032 -0.37,-2.11 -0.70047,-5.20906 -0.98047,-9.28906 -0.23,-4.07 -0.34961,-9.56117 -0.34961,-16.45117 0,-0.98 0.0487,-2.31977 0.13867,-4.00977 0.09,-1.73 0.21156,-3.57882 0.35156,-5.54882 0.14,-2.02 0.31024,-4.57188 0.49024,-7.67188 0.19,-3.14 0.37836,-5.52992 0.56836,-7.16992 0.23,-1.68 0.46117,-3.04322 0.70117,-4.07422 0.23,-1.078 0.43891,-1.617188 0.62891,-1.617188 z"
       id="path4159"
       inkscape:connector-curvature="0" />
  </g>
</svg>
