<!--part of the glare theme by sixsixfive released under cc_by-sa-v4-->
<svg xmlns="http://www.w3.org/2000/svg" viewBox="0 0 5 5"><path d="M 2.00143,0.00218 C 0.89343,0.00218 0.00143,0.89418 0.00143,2.00218 L 0.00143,3.00218 C 0.00143,4.11018 0.89343,5.00218 2.00143,5.00218 L 3.00143,5.00218 C 4.10943,5.00218 5.00143,4.11018 5.00143,3.00218 L 5.00143,2.00218 C 5.00143,0.89418 4.10943,0.00218 3.00143,0.00218 L 2.00143,0.00218 z M 2.00143,1.00218 3.00143,1.00218 C 3.56757,1.00218 4.00143,1.43603 4.00143,2.00218 L 4.00143,3.00218 C 4.00143,3.56833 3.56757,4.00218 3.00143,4.00218 L 2.00143,4.00218 C 1.43528,4.00218 1.00143,3.56833 1.00143,3.00218 L 1.00143,2.00218 C 1.00143,1.43603 1.43528,1.00218 2.00143,1.00218 z" opacity="0.3"/><rect width="3" height="3" rx="1" x="1" y="1" opacity="0.15"/></svg>