<!--part of the glare theme by sixsixfive released under cc_by-sa-v4-->
<svg xmlns="http://www.w3.org/2000/svg" viewBox="0 0 13 13"><g transform="translate(0 -3)"><path d="M 2.1 6 C 2 6 2 6 2 6.1 V 14.9 C 2 15 2 15 2.1 15 H 10.9 C 11 15 11 15 11 14.9 V 6.1 C 11 6 11 6 10.9 6 H 2.1 z" transform="translate(0 -1)" opacity="0.8" fill="#fff"/><path d="M 2.1 4 C 1.5 4 1 4.5 1 5.1 V 13.9 C 1 14.5 1.5 15 2.1 15 H 10.9 C 11.5 15 12 14.5 12 13.9 V 5.1 C 12 4.5 11.5 4 10.9 4 H 2.1 z M 2 5 C 2 5 2.1 5 2.1 5 H 10.9 C 11 5 11 5 11 5.1 V 13.9 C 11 14 11 14 10.9 14 H 2.1 C 2 14 2 14 2 13.9 V 5.1 C 2 5 2 5 2 5 z" opacity="0.1"/></g></svg>