<!--part of the glare theme by sixsixfive released under cc_by-sa-v4-->
<svg xmlns="http://www.w3.org/2000/svg" viewBox="0 0 13 13"><path d="M 2.1 2 C 2 2 2 2 2 2.1 V 10.9 C 2 11 2 11 2.1 11 H 10.9 C 11 11 11 11 11 10.9 V 2.1 C 11 2 11 2 10.9 2 H 2.1 z" opacity="0.8" fill="#fff"/><path d="M 2.1 1 C 1.5 1 1 1.5 1 2.1 V 10.9 C 1 11.5 1.5 12 2.1 12 H 10.9 C 11.5 12 12 11.5 12 10.9 V 2.1 C 12 1.5 11.5 1 10.9 1 H 2.1 z M 2 2 C 2 2 2.1 2 2.1 2 H 10.9 C 11 2 11 2 11 2.1 V 10.9 C 11 11 11 11 10.9 11 H 2.1 C 2 11 2 11 2 10.9 V 2.1 C 2 2.1 2 2 2 2 z" opacity="0.1"/><path d="M 4,5 7,8 11,1" fill="none" stroke="#999" stroke-linejoin="round" stroke-linecap="round" stroke-width="2"/></svg>