<!--part of the glare theme by sixsixfive released under cc_by-sa-v4-->
<svg xmlns="http://www.w3.org/2000/svg" viewBox="0 0 13 13"><path d="M 6.5 1 C 3.5 1 1 3.5 1 6.5 1 9.5 3.5 12 6.5 12 9.5 12 12 9.5 12 6.5 12 3.5 9.5 1 6.5 1 z M 6.5 2 C 9 2 11 4 11 6.5 11 9 9 11 6.5 11 4 11 2 9 2 6.5 2 4 4 2 6.5 2 z" opacity="0.2"/><path d="M 12 6.5 A 5.5 5.5 0 1 1 1 6.5 5.5 5.5 0 1 1 12 6.5 z" transform="matrix(0.8 0 0 0.8 1.2 1.2)" opacity="0.8" fill="#fff"/><rect width="5" height="2" x="4" y="5" fill="#5a5a5a" rx="1"/></svg>