<!--part of the glare theme by sixsixfive released under cc_by-sa-v4-->
<svg xmlns="http://www.w3.org/2000/svg" viewBox="0 0 12 12"><path d="M 12,6 A 6,6 0 0 1 0,6 6,6 0 1 1 12,6 z" fill="#fff"/><path d="M 5.9,0.5 C 4.1,0.5 2.4,1.3 1.5,2.9 A 0.5,0.5 0 0 1 1.4,2.9 C -0.6,5.7 0.9,10.2 4.2,11.3 A 0,0 0 0 0 4.2,11.3 C 7.6,12.5 11.7,9.6 11.5,6 A 0,0 0 0 0 11.5,6 C 11.5,4.8 11,3.6 10.4,2.7 A 0,0 0 0 0 10.4,2.7 C 9.4,1.2 7.6,0.5 5.9,0.5 z" opacity="0.3" fill="none" stroke="#000"/><path d="M 8,6.5 A 2,1.5 0 1 1 4,6.5 2,1.5 0 1 1 8,6.5 z" transform="matrix(1 0 0 1.3 0 -2.7)" opacity="0.4" fill="#6a6a6a"/></svg>