<?xml version="1.0" encoding="UTF-8" standalone="no"?>
<svg
   xmlns:dc="http://purl.org/dc/elements/1.1/"
   xmlns:cc="http://creativecommons.org/ns#"
   xmlns:rdf="http://www.w3.org/1999/02/22-rdf-syntax-ns#"
   xmlns:svg="http://www.w3.org/2000/svg"
   xmlns="http://www.w3.org/2000/svg"
   version="1.1"
   id="svg2"
   viewBox="0 0 12 12">
  <metadata
     id="metadata14">
    <rdf:RDF>
      <cc:Work
         rdf:about="">
        <dc:format>image/svg+xml</dc:format>
        <dc:type
           rdf:resource="http://purl.org/dc/dcmitype/StillImage" />
        <dc:title></dc:title>
      </cc:Work>
    </rdf:RDF>
  </metadata>
  <defs
     id="defs12" />
  <path
     style="fill:#383838;fill-opacity:1"
     id="path4"
     fill="#fff"
     d="M 12,6 A 6,6 0 0 1 0,6 6,6 0 1 1 12,6 z" />
  <path
     style="opacity:0.6"
     id="path6"
     stroke="#000"
     fill="none"
     opacity="0.3"
     d="M 5.9,0.5 C 4.1,0.5 2.4,1.3 1.5,2.9 A 0.5,0.5 0 0 1 1.4,2.9 C -0.6,5.7 0.9,10.2 4.2,11.3 A 0,0 0 0 0 4.2,11.3 C 7.6,12.5 11.7,9.6 11.5,6 A 0,0 0 0 0 11.5,6 C 11.5,4.8 11,3.6 10.4,2.7 A 0,0 0 0 0 10.4,2.7 C 9.4,1.2 7.6,0.5 5.9,0.5 z" />
  <path
     style="fill:#888888;fill-opacity:1;opacity:1"
     id="path8"
     fill="#6a6a6a"
     opacity="0.4"
     transform="matrix(1 0 0 1.3 0 -2.7)"
     d="M 8,6.5 A 2,1.5 0 1 1 4,6.5 2,1.5 0 1 1 8,6.5 z" />
</svg>
