<!--part of the glare theme by sixsixfive released under cc_by-sa-v4-->
<svg xmlns="http://www.w3.org/2000/svg" viewBox="0 0 16 16"><path d="M 3.1,4 C 3,4 3,4 3,4.1 V 12.9 C 3,13 3,13 3.1,13 H 11.9 C 12,13 12,13 12,12.9 V 4.1 C 12,4 12,4 11.9,4 H 3.1 z" opacity="0.8" fill="#fff"/><path d="M 3.1,3 C 2.5,3 2,3.5 2,4.1 V 12.9 C 2,13.5 2.5,14 3.1,14 H 11.9 C 12.5,14 13,13.5 13,12.9 V 4.1 C 13,3.5 12.5,3 11.9,3 H 3.1 z M 3,4 C 3,4 3.1,4 3.1,4 H 11.9 C 12,4 12,4 12,4.1 V 12.9 C 12,13 12,13 11.9,13 H 3.1 C 3,13 3,13 3,12.9 V 4.1 C 3,4.1 3,4 3,4 z" opacity="0.1"/><path d="M 5,7 8,10 12,3" fill="none" stroke="#999" stroke-linejoin="round" stroke-linecap="round" stroke-width="2"/></svg>