<!--part of the glare theme by sixsixfive released under cc_by-sa-v4-->
<svg xmlns="http://www.w3.org/2000/svg" viewBox="0 0 5 7"><path d="M 4.1373061,1.0096279 A 0.99491807,0.99774188 0 0 1 4.7279796,1.2902147 L 10.696891,7.2760674 A 0.99491807,0.99774188 0 0 1 10.696891,8.7101779 L 4.7279796,14.69603 A 0.99491807,0.99774188 0 0 1 3.297927,14.69603 L 2.303109,13.698388 A 0.99491807,0.99774188 0 0 1 2.303109,12.264278 L 6.5621764,7.9931227 2.303109,3.7219674 A 0.99491807,0.99774188 0 0 1 2.303109,2.2878568 L 3.297927,1.2902147 A 0.99491807,0.99774188 0 0 1 4.1373061,1.0096279 z" color="#000" fill="#fff" transform="matrix(0.5 0 0 0.5 -1.069 -0.505)"/></svg>