<?xml version="1.0" encoding="UTF-8" standalone="no"?>
<svg
   xmlns:dc="http://purl.org/dc/elements/1.1/"
   xmlns:cc="http://creativecommons.org/ns#"
   xmlns:rdf="http://www.w3.org/1999/02/22-rdf-syntax-ns#"
   xmlns:svg="http://www.w3.org/2000/svg"
   xmlns="http://www.w3.org/2000/svg"
   viewBox="0 0 5 5"
   id="svg2"
   version="1.1">
  <metadata
     id="metadata14">
    <rdf:RDF>
      <cc:Work
         rdf:about="">
        <dc:format>image/svg+xml</dc:format>
        <dc:type
           rdf:resource="http://purl.org/dc/dcmitype/StillImage" />
        <dc:title></dc:title>
      </cc:Work>
    </rdf:RDF>
  </metadata>
  <defs
     id="defs12" />
  <path
     style="opacity:0.35;fill:#000000;fill-opacity:1"
     id="path6"
     d="M 2,0 C 0.9,0 0,0.9 0,2 L 0,3 C 0,4.1 0.9,5 2,5 L 3,5 C 4.1,5 5,4.1 5,3 L 5,2 C 5,0.9 4.1,0 3,0 L 2,0 Z M 2,1 3,1 C 3.6,1 4,1.4 4,2 L 4,3 C 4,3.6 3.6,4 3,4 L 2,4 C 1.4,4 1,3.6 1,3 L 1,2 C 1,1.4 1.4,1 2,1 Z" />
  <rect
     style="opacity:1;fill:#000000;fill-opacity:0.00784314"
     id="rect8"
     rx="1"
     y="1"
     x="1"
     height="3"
     width="3" />
</svg>
