<?xml version="1.0" encoding="UTF-8" standalone="no"?>
<svg
   xmlns:dc="http://purl.org/dc/elements/1.1/"
   xmlns:cc="http://creativecommons.org/ns#"
   xmlns:rdf="http://www.w3.org/1999/02/22-rdf-syntax-ns#"
   xmlns:svg="http://www.w3.org/2000/svg"
   xmlns="http://www.w3.org/2000/svg"
   version="1.1"
   id="svg2"
   viewBox="0 0 5 5">
  <metadata
     id="metadata12">
    <rdf:RDF>
      <cc:Work
         rdf:about="">
        <dc:format>image/svg+xml</dc:format>
        <dc:type
           rdf:resource="http://purl.org/dc/dcmitype/StillImage" />
        <dc:title></dc:title>
      </cc:Work>
    </rdf:RDF>
  </metadata>
  <defs
     id="defs10" />
  <path
     style="opacity:0.5"
     id="path4"
     opacity="0.3"
     d="M 2.00143,0.00218 C 0.89343,0.00218 0.00143,0.89418 0.00143,2.00218 L 0.00143,3.00218 C 0.00143,4.11018 0.89343,5.00218 2.00143,5.00218 L 3.00143,5.00218 C 4.10943,5.00218 5.00143,4.11018 5.00143,3.00218 L 5.00143,2.00218 C 5.00143,0.89418 4.10943,0.00218 3.00143,0.00218 L 2.00143,0.00218 z M 2.00143,1.00218 3.00143,1.00218 C 3.56757,1.00218 4.00143,1.43603 4.00143,2.00218 L 4.00143,3.00218 C 4.00143,3.56833 3.56757,4.00218 3.00143,4.00218 L 2.00143,4.00218 C 1.43528,4.00218 1.00143,3.56833 1.00143,3.00218 L 1.00143,2.00218 C 1.00143,1.43603 1.43528,1.00218 2.00143,1.00218 z" />
  <rect
     style="opacity:0.3"
     id="rect6"
     opacity="0.15"
     y="1"
     x="1"
     rx="1"
     height="3"
     width="3" />
</svg>
