<?xml version="1.0" encoding="UTF-8" standalone="no"?>
<svg
   xmlns:dc="http://purl.org/dc/elements/1.1/"
   xmlns:cc="http://creativecommons.org/ns#"
   xmlns:rdf="http://www.w3.org/1999/02/22-rdf-syntax-ns#"
   xmlns:svg="http://www.w3.org/2000/svg"
   xmlns="http://www.w3.org/2000/svg"
   viewBox="0 0 5 5"
   id="svg2"
   version="1.1">
  <metadata
     id="metadata14">
    <rdf:RDF>
      <cc:Work
         rdf:about="">
        <dc:format>image/svg+xml</dc:format>
        <dc:type
           rdf:resource="http://purl.org/dc/dcmitype/StillImage" />
        <dc:title></dc:title>
      </cc:Work>
    </rdf:RDF>
  </metadata>
  <defs
     id="defs12" />
  <g
     transform="translate(194 -424)"
     id="g4">
    <path
       d="m -192 424 c -1.1 0 -2 0.9 -2 2 v 1 c 0 1.1 0.9 2 2 2 h 1 c 1.1 0 2 -0.9 2 -2 v -1 c 0 -1.1 -0.9 -2 -2 -2 h -1 z m 0 1 h 1 c 0.6 0 1 0.4 1 1 v 1 c 0 0.6 -0.4 1 -1 1 h -1 c -0.6 0 -1 -0.4 -1 -1 v -1 c 0 -0.6 0.4 -1 1 -1 z"
       opacity="0.1"
       id="path6"
       style="opacity:0.35" />
    <rect
       width="3"
       height="3"
       x="-193"
       y="425"
       opacity="0.8"
       fill="#fff"
       rx="1"
       id="rect8"
       style="fill:#000000;opacity:0.1" />
  </g>
</svg>
